<svg width="285" height="235" viewBox="0 0 285 235" fill="none" xmlns="http://www.w3.org/2000/svg">
<g opacity="0.51">
<path d="M281.945 3.01973C281.948 3.00505 281.948 2.99338 281.95 2.9787C281.916 1.4657 281.881 -0.0531531 281.846 -1.56616C281.836 -1.99844 281.457 -2.36089 281.025 -2.35098C279.511 -2.31629 277.993 -2.28145 276.48 -2.24676C276.468 -2.2465 276.453 -2.24324 276.439 -2.23999C276.025 -2.20711 275.685 -1.84572 275.695 -1.42511C275.73 0.0878907 275.764 1.60673 275.799 3.11973C275.809 3.55202 276.188 3.91446 276.621 3.90455C278.134 3.86986 279.652 3.83505 281.165 3.80036C281.399 3.795 281.578 3.70321 281.704 3.57175C281.712 3.56279 281.718 3.55681 281.727 3.54785C281.732 3.54188 281.741 3.53291 281.747 3.52693C281.867 3.40729 281.945 3.236 281.945 3.01973ZM277.39 2.2796C277.367 1.29819 277.345 0.322631 277.323 -0.658777C277.574 -0.664536 277.831 -0.670429 278.082 -0.676188C278.806 -0.692797 279.537 -0.709548 280.261 -0.726156C280.278 -0.00178352 280.294 0.728446 280.311 1.45282C280.317 1.70401 280.323 1.96104 280.328 2.21223C279.347 2.23474 278.366 2.25723 277.39 2.2796Z" fill="url(#paint0_linear_1_20)"/>
<path d="M259.233 3.50117C259.198 1.98816 259.163 0.469317 259.128 -1.04369C259.119 -1.47597 258.739 -1.83842 258.307 -1.82851C256.794 -1.79382 255.275 -1.75899 253.762 -1.7243C253.33 -1.71439 252.967 -1.33494 252.977 -0.902652C253.012 0.610351 253.047 2.1292 253.081 3.6422C253.091 4.07449 253.471 4.43693 253.903 4.42702C255.416 4.39233 256.935 4.35751 258.448 4.32282C258.681 4.31746 258.86 4.22569 258.986 4.09422C258.995 4.08526 259 4.07929 259.009 4.07032C259.015 4.06435 259.023 4.05538 259.029 4.04941C259.157 3.9208 259.238 3.74068 259.233 3.50117ZM254.672 2.80207C254.65 1.82067 254.627 0.845101 254.605 -0.136307C255.586 -0.158808 256.562 -0.181185 257.543 -0.203686C257.566 0.777722 257.588 1.7533 257.611 2.7347C256.629 2.75721 255.648 2.77971 254.672 2.80207Z" fill="url(#paint1_linear_1_20)"/>
<path d="M282.469 25.6984C282.434 24.1854 282.399 22.6666 282.365 21.1536C282.355 20.7213 281.975 20.3588 281.543 20.3688C280.03 20.4034 278.511 20.4383 276.998 20.473C276.566 20.4829 276.204 20.8623 276.213 21.2946C276.248 22.8076 276.283 24.3265 276.318 25.8395C276.327 26.2717 276.707 26.6342 277.139 26.6243C278.652 26.5896 280.171 26.5548 281.684 26.5201C281.918 26.5147 282.097 26.423 282.222 26.2915C282.231 26.2825 282.237 26.2766 282.245 26.2676C282.251 26.2616 282.259 26.2526 282.265 26.2467C282.394 26.1181 282.474 25.9379 282.469 25.6984ZM277.909 24.9993C277.886 24.0179 277.864 23.0424 277.841 22.061C278.823 22.0385 279.798 22.0161 280.78 21.9936C280.802 22.975 280.824 23.9506 280.847 24.932C279.866 24.9545 278.884 24.977 277.909 24.9993Z" fill="url(#paint2_linear_1_20)"/>
<path d="M236.512 4.02036C236.478 2.50736 236.443 0.988523 236.408 -0.524481C236.399 -0.927559 236.073 -1.262 235.683 -1.30275C235.651 -1.30493 235.621 -1.3101 235.586 -1.3093C234.073 -1.27461 232.555 -1.2398 231.042 -1.20511C230.609 -1.1952 230.247 -0.815742 230.257 -0.383455C230.291 1.12955 230.326 2.6484 230.361 4.16141C230.362 4.19646 230.368 4.22554 230.372 4.2576C230.43 4.64494 230.779 4.95547 231.183 4.94623C232.696 4.91154 234.214 4.8767 235.727 4.84201C235.961 4.83666 236.14 4.74488 236.266 4.61342C236.274 4.60445 236.28 4.59849 236.289 4.58953C236.294 4.58355 236.303 4.57459 236.308 4.56861C236.434 4.43715 236.515 4.25702 236.512 4.02036ZM231.949 3.32426C231.944 3.09059 231.938 2.85692 231.933 2.62325C231.916 1.87551 231.899 1.12777 231.882 0.385872C232.629 0.368728 233.377 0.351584 234.119 0.334574C234.353 0.329217 234.586 0.323868 234.82 0.318511C234.843 1.29992 234.865 2.27548 234.887 3.25688C233.909 3.2764 232.927 3.29891 231.949 3.32426Z" fill="url(#paint3_linear_1_20)"/>
<path d="M259.752 26.218C259.717 24.7049 259.683 23.1861 259.648 21.6731C259.638 21.2408 259.259 20.8784 258.826 20.8883C257.313 20.923 255.794 20.9578 254.281 20.9925C253.849 21.0024 253.487 21.3818 253.497 21.8141C253.531 23.3271 253.566 24.846 253.601 26.359C253.611 26.7913 253.99 27.1537 254.422 27.1438C255.935 27.1091 257.454 27.0743 258.967 27.0396C259.201 27.0342 259.38 26.9425 259.506 26.811C259.514 26.802 259.52 26.7961 259.528 26.7871C259.534 26.7811 259.543 26.7722 259.548 26.7662C259.677 26.6376 259.758 26.4575 259.752 26.218ZM255.189 25.5218C255.166 24.5404 255.144 23.5649 255.122 22.5835C256.103 22.561 257.079 22.5386 258.06 22.5161C258.082 23.4975 258.105 24.4731 258.127 25.4545C257.149 25.474 256.167 25.4965 255.189 25.5218Z" fill="url(#paint4_linear_1_20)"/>
<path d="M282.988 48.4152C282.954 46.9022 282.919 45.3834 282.884 43.8704C282.874 43.4381 282.495 43.0757 282.063 43.0856C280.55 43.1203 279.031 43.1551 277.518 43.1897C277.086 43.1997 276.723 43.5791 276.733 44.0114C276.768 45.5244 276.802 47.0433 276.837 48.5563C276.847 48.9886 277.226 49.351 277.659 49.3411C279.172 49.3064 280.691 49.2716 282.204 49.2369C282.437 49.2315 282.616 49.1398 282.742 49.0083C282.751 48.9993 282.756 48.9934 282.765 48.9844C282.77 48.9784 282.779 48.9695 282.785 48.9635C282.913 48.8349 282.994 48.6547 282.988 48.4152ZM278.425 47.7191C278.403 46.7377 278.38 45.7621 278.358 44.7807C279.339 44.7582 280.315 44.7359 281.296 44.7134C281.319 45.6948 281.341 46.6703 281.364 47.6517C280.385 47.6713 279.404 47.6938 278.425 47.7191Z" fill="url(#paint5_linear_1_20)"/>
<path d="M237.033 26.7394C236.999 25.2264 236.964 23.7076 236.929 22.1946C236.919 21.7623 236.54 21.3999 236.108 21.4098C234.595 21.4445 233.076 21.4793 231.563 21.514C231.13 21.5239 230.768 21.9033 230.778 22.3356C230.813 23.8486 230.847 25.3675 230.882 26.8805C230.892 27.3128 231.271 27.6752 231.704 27.6653C233.217 27.6306 234.736 27.5958 236.249 27.5611C236.482 27.5557 236.661 27.464 236.787 27.3325C236.795 27.3235 236.801 27.3175 236.81 27.3086C236.815 27.3026 236.824 27.2936 236.83 27.2877C236.958 27.1591 237.039 26.9789 237.033 26.7394ZM232.47 26.0433C232.448 25.0619 232.425 24.0864 232.403 23.1049C233.384 23.0824 234.36 23.0601 235.341 23.0376C235.364 24.019 235.386 24.9946 235.409 25.976C234.43 25.9955 233.449 26.018 232.47 26.0433Z" fill="url(#paint6_linear_1_20)"/>
<path d="M260.273 48.9367C260.238 47.4237 260.204 45.9049 260.169 44.3919C260.159 43.9596 259.78 43.5971 259.347 43.607C257.834 43.6417 256.315 43.6765 254.802 43.7112C254.37 43.7211 254.008 44.1006 254.018 44.5329C254.052 46.0459 254.087 47.5647 254.122 49.0777C254.132 49.51 254.511 49.8725 254.943 49.8626C256.456 49.8279 257.975 49.793 259.488 49.7584C259.722 49.753 259.901 49.6612 260.027 49.5298C260.035 49.5208 260.041 49.5148 260.049 49.5059C260.055 49.4999 260.064 49.4909 260.069 49.4849C260.198 49.3563 260.279 49.1762 260.273 48.9367ZM255.71 48.2406C255.687 47.2592 255.665 46.2836 255.643 45.3022C256.624 45.2797 257.6 45.2573 258.581 45.2348C258.603 46.2163 258.626 47.1918 258.648 48.1732C257.67 48.1927 256.688 48.2152 255.71 48.2406Z" fill="url(#paint7_linear_1_20)"/>
<path d="M283.51 71.134C283.475 69.621 283.44 68.1021 283.406 66.5891C283.396 66.1568 283.016 65.7944 282.584 65.8043C281.071 65.839 279.552 65.8738 278.039 65.9085C277.607 65.9184 277.245 66.2979 277.254 66.7302C277.289 68.2432 277.324 69.762 277.359 71.275C277.369 71.7073 277.748 72.0698 278.18 72.0598C279.693 72.0252 281.212 71.9903 282.725 71.9556C282.959 71.9503 283.138 71.8585 283.263 71.727C283.272 71.7181 283.278 71.7121 283.286 71.7031C283.292 71.6971 283.301 71.6882 283.306 71.6822C283.435 71.5536 283.515 71.3735 283.51 71.134ZM278.947 70.4379C278.924 69.4565 278.902 68.4809 278.879 67.4995C279.861 67.477 280.836 67.4546 281.818 67.4321C281.84 68.4135 281.863 69.3891 281.885 70.3705C280.907 70.39 279.925 70.4125 278.947 70.4379Z" fill="url(#paint8_linear_1_20)"/>
<path d="M214.312 27.2606C214.278 25.7476 214.243 24.2288 214.208 22.7157C214.199 22.3127 213.873 21.9782 213.483 21.9375C213.451 21.9353 213.422 21.9301 213.387 21.9309C211.874 21.9656 210.355 22.0005 208.842 22.0351C208.41 22.0451 208.047 22.4245 208.057 22.8568C208.092 24.3698 208.126 25.8886 208.161 27.4016C208.162 27.4367 208.168 27.4658 208.172 27.4978C208.231 27.8852 208.58 28.1957 208.983 28.1865C210.496 28.1518 212.015 28.117 213.528 28.0823C213.761 28.0769 213.94 27.9851 214.066 27.8537C214.075 27.8447 214.08 27.8387 214.089 27.8298C214.095 27.8238 214.103 27.8148 214.109 27.8088C214.234 27.6774 214.315 27.4973 214.312 27.2606ZM209.749 26.5645C209.744 26.3308 209.739 26.0972 209.733 25.8635C209.716 25.1158 209.699 24.368 209.682 23.6261C210.43 23.609 211.177 23.5918 211.919 23.5748C212.153 23.5695 212.387 23.5641 212.62 23.5587C212.643 24.5401 212.665 25.5157 212.688 26.4971C211.709 26.5166 210.728 26.5391 209.749 26.5645Z" fill="url(#paint9_linear_1_20)"/>
<path d="M237.553 49.4563C237.518 47.9432 237.483 46.4244 237.449 44.9114C237.439 44.4791 237.059 44.1167 236.627 44.1266C235.114 44.1613 233.595 44.1961 232.082 44.2308C231.65 44.2407 231.288 44.6201 231.297 45.0524C231.332 46.5654 231.367 48.0843 231.402 49.5973C231.411 50.0296 231.791 50.392 232.223 50.3821C233.736 50.3474 235.255 50.3126 236.768 50.2779C237.002 50.2725 237.181 50.1808 237.306 50.0493C237.315 50.0403 237.321 50.0344 237.329 50.0254C237.335 50.0194 237.343 50.0105 237.349 50.0045C237.478 49.8759 237.558 49.6958 237.553 49.4563ZM232.99 48.7601C232.967 47.7787 232.945 46.8032 232.922 45.8218C233.904 45.7993 234.879 45.7769 235.861 45.7544C235.883 46.7358 235.906 47.7114 235.928 48.6928C234.95 48.7123 233.968 48.7348 232.99 48.7601Z" fill="url(#paint10_linear_1_20)"/>
<path d="M260.793 71.6555C260.758 70.1425 260.724 68.6236 260.689 67.1106C260.679 66.6783 260.3 66.3159 259.867 66.3258C258.354 66.3605 256.835 66.3953 255.322 66.43C254.89 66.4399 254.528 66.8194 254.538 67.2517C254.572 68.7647 254.607 70.2835 254.642 71.7965C254.652 72.2288 255.031 72.5912 255.463 72.5813C256.976 72.5466 258.495 72.5118 260.008 72.4771C260.242 72.4718 260.421 72.38 260.547 72.2485C260.555 72.2396 260.561 72.2336 260.569 72.2246C260.575 72.2187 260.584 72.2097 260.589 72.2037C260.718 72.0751 260.799 71.895 260.793 71.6555ZM256.23 70.9594C256.207 69.978 256.185 69.0024 256.163 68.021C257.144 67.9985 258.12 67.9761 259.101 67.9536C259.123 68.935 259.146 69.9106 259.168 70.892C258.19 70.9115 257.208 70.934 256.23 70.9594Z" fill="url(#paint11_linear_1_20)"/>
<path d="M284.031 93.8527C283.996 92.3397 283.961 90.8209 283.927 89.3079C283.917 88.8756 283.537 88.5131 283.105 88.523C281.592 88.5577 280.073 88.5926 278.56 88.6273C278.128 88.6372 277.765 89.0166 277.775 89.4489C277.81 90.9619 277.845 92.4808 277.879 93.9938C277.889 94.426 278.269 94.7885 278.701 94.7786C280.214 94.7439 281.733 94.7091 283.246 94.6744C283.48 94.669 283.659 94.5773 283.784 94.4458C283.793 94.4368 283.799 94.4308 283.807 94.4219C283.813 94.4159 283.821 94.4069 283.827 94.401C283.956 94.2724 284.036 94.0922 284.031 93.8527ZM279.468 93.1566C279.445 92.1752 279.423 91.1997 279.4 90.2182C280.382 90.1957 281.357 90.1734 282.339 90.1509C282.361 91.1323 282.383 92.1078 282.406 93.0893C281.427 93.1088 280.449 93.1341 279.468 93.1566Z" fill="url(#paint12_linear_1_20)"/>
<path d="M214.836 49.9797C214.801 48.4667 214.767 46.9478 214.732 45.4348C214.722 45.0025 214.343 44.6401 213.91 44.65C212.397 44.6847 210.878 44.7195 209.365 44.7542C208.933 44.7641 208.571 45.1436 208.581 45.5759C208.615 47.0889 208.65 48.6077 208.685 50.1207C208.695 50.553 209.074 50.9154 209.506 50.9055C211.019 50.8708 212.538 50.836 214.051 50.8013C214.285 50.796 214.464 50.7042 214.59 50.5727C214.598 50.5638 214.604 50.5578 214.612 50.5488C214.618 50.5429 214.627 50.5339 214.632 50.5279C214.758 50.4023 214.842 50.2192 214.836 49.9797ZM210.273 49.2836C210.25 48.3022 210.228 47.3266 210.206 46.3452C211.187 46.3227 212.163 46.3003 213.144 46.2778C213.166 47.2592 213.189 48.2348 213.211 49.2162C212.233 49.2357 211.251 49.2582 210.273 49.2836Z" fill="url(#paint13_linear_1_20)"/>
<path d="M238.074 72.177C238.04 70.664 238.005 69.1451 237.97 67.6321C237.96 67.1998 237.581 66.8374 237.149 66.8473C235.636 66.882 234.117 66.9168 232.604 66.9515C232.171 66.9614 231.809 67.3409 231.819 67.7731C231.854 69.2861 231.888 70.805 231.923 72.318C231.933 72.7503 232.312 73.1127 232.745 73.1028C234.258 73.0681 235.777 73.0333 237.29 72.9986C237.523 72.9933 237.702 72.9015 237.828 72.77C237.836 72.761 237.842 72.7551 237.851 72.7461C237.856 72.7401 237.865 72.7312 237.871 72.7252C237.996 72.5996 238.08 72.4165 238.074 72.177ZM233.511 71.4808C233.489 70.4994 233.466 69.5239 233.444 68.5425C234.425 68.52 235.401 68.4976 236.382 68.4751C236.405 69.4565 236.427 70.4321 236.45 71.4135C235.471 71.433 234.49 71.4555 233.511 71.4808Z" fill="url(#paint14_linear_1_20)"/>
<path d="M261.315 94.3742C261.28 92.8612 261.245 91.3424 261.21 89.8294C261.201 89.3971 260.821 89.0346 260.389 89.0445C258.876 89.0792 257.357 89.1141 255.844 89.1488C255.412 89.1587 255.049 89.5381 255.059 89.9704C255.094 91.4834 255.129 93.0023 255.163 94.5153C255.173 94.9475 255.553 95.31 255.985 95.3001C257.498 95.2654 259.017 95.2306 260.53 95.1959C260.763 95.1905 260.943 95.0987 261.068 94.9673C261.077 94.9583 261.082 94.9523 261.091 94.9434C261.097 94.9374 261.105 94.9284 261.111 94.9225C261.237 94.7968 261.32 94.6137 261.315 94.3742ZM256.751 93.6781C256.729 92.6967 256.707 91.7211 256.684 90.7397C257.665 90.7172 258.641 90.6949 259.622 90.6724C259.645 91.6538 259.667 92.6293 259.69 93.6107C258.711 93.6303 257.73 93.6528 256.751 93.6781Z" fill="url(#paint15_linear_1_20)"/>
<path d="M284.552 116.571C284.518 115.058 284.483 113.54 284.448 112.027C284.438 111.594 284.059 111.232 283.627 111.242C282.114 111.276 280.595 111.311 279.082 111.346C278.649 111.356 278.287 111.735 278.297 112.168C278.332 113.681 278.366 115.2 278.401 116.713C278.411 117.145 278.79 117.507 279.223 117.497C280.736 117.463 282.255 117.428 283.768 117.393C284.001 117.388 284.18 117.296 284.306 117.165C284.314 117.156 284.32 117.15 284.329 117.141C284.334 117.135 284.343 117.126 284.349 117.12C284.474 116.994 284.558 116.811 284.552 116.571ZM279.989 115.875C279.967 114.894 279.944 113.918 279.922 112.937C280.903 112.914 281.879 112.892 282.86 112.87C282.883 113.851 282.905 114.827 282.928 115.808C281.949 115.828 280.971 115.853 279.989 115.875Z" fill="url(#paint16_linear_1_20)"/>
<path d="M192.118 50.4989C192.083 48.9859 192.048 47.467 192.013 45.954C192.004 45.551 191.678 45.2165 191.288 45.1758C191.256 45.1736 191.227 45.1684 191.192 45.1692C189.679 45.2039 188.16 45.2387 186.647 45.2734C186.215 45.2833 185.852 45.6628 185.862 46.0951C185.897 47.6081 185.932 49.1269 185.966 50.6399C185.967 50.675 185.974 50.7041 185.977 50.7361C186.036 51.1235 186.385 51.434 186.788 51.4247C188.301 51.3901 189.82 51.3552 191.333 51.3205C191.566 51.3152 191.746 51.2234 191.871 51.0919C191.88 51.083 191.885 51.077 191.894 51.068C191.9 51.0621 191.908 51.0531 191.914 51.0471C192.037 50.9187 192.12 50.7355 192.118 50.4989ZM187.554 49.8028C187.549 49.5691 187.544 49.3354 187.538 49.1018C187.521 48.354 187.504 47.6063 187.487 46.8644C188.235 46.8472 188.983 46.8301 189.724 46.8131C189.958 46.8077 190.192 46.8024 190.426 46.797C190.448 47.7784 190.47 48.754 190.493 49.7354C189.511 49.7579 188.533 49.7774 187.554 49.8028Z" fill="url(#paint17_linear_1_20)"/>
<path d="M215.354 72.6965C215.319 71.1835 215.284 69.6646 215.25 68.1516C215.24 67.7193 214.86 67.3569 214.428 67.3668C212.915 67.4015 211.396 67.4363 209.883 67.471C209.451 67.4809 209.088 67.8604 209.098 68.2927C209.133 69.8057 209.168 71.3245 209.202 72.8375C209.212 73.2698 209.592 73.6322 210.024 73.6223C211.537 73.5876 213.056 73.5528 214.569 73.5181C214.803 73.5128 214.982 73.421 215.107 73.2895C215.116 73.2806 215.121 73.2746 215.13 73.2656C215.136 73.2597 215.144 73.2507 215.15 73.2447C215.276 73.1191 215.359 72.936 215.354 72.6965ZM210.79 72.0004C210.768 71.019 210.746 70.0434 210.723 69.062C211.705 69.0395 212.68 69.0171 213.662 68.9946C213.684 69.976 213.706 70.9516 213.729 71.933C212.747 71.9555 211.769 71.975 210.79 72.0004Z" fill="url(#paint18_linear_1_20)"/>
<path d="M238.594 94.8937C238.559 93.3807 238.524 91.8619 238.49 90.3489C238.48 89.9166 238.1 89.5542 237.668 89.5641C236.155 89.5988 234.636 89.6336 233.123 89.6683C232.691 89.6782 232.329 90.0576 232.338 90.4899C232.373 92.0029 232.408 93.5218 232.443 95.0348C232.452 95.4671 232.832 95.8295 233.264 95.8196C234.777 95.7849 236.296 95.7501 237.809 95.7154C238.043 95.71 238.222 95.6183 238.347 95.4868C238.356 95.4778 238.362 95.4719 238.37 95.4629C238.376 95.4569 238.385 95.448 238.39 95.442C238.516 95.3164 238.599 95.1332 238.594 94.8937ZM234.031 94.1976C234.008 93.2162 233.986 92.2407 233.963 91.2592C234.945 91.2367 235.92 91.2144 236.902 91.1919C236.924 92.1733 236.947 93.1488 236.969 94.1303C235.988 94.1528 235.009 94.1723 234.031 94.1976Z" fill="url(#paint19_linear_1_20)"/>
<path d="M261.834 117.091C261.799 115.578 261.765 114.059 261.73 112.546C261.72 112.114 261.341 111.751 260.908 111.761C259.395 111.796 257.877 111.831 256.364 111.866C255.931 111.875 255.569 112.255 255.579 112.687C255.613 114.2 255.648 115.719 255.683 117.232C255.693 117.664 256.072 118.027 256.504 118.017C258.017 117.982 259.536 117.947 261.049 117.913C261.283 117.907 261.462 117.816 261.588 117.684C261.596 117.675 261.602 117.669 261.61 117.66C261.616 117.654 261.625 117.645 261.63 117.639C261.756 117.514 261.84 117.331 261.834 117.091ZM257.271 116.395C257.248 115.413 257.226 114.438 257.204 113.457C258.185 113.434 259.161 113.412 260.142 113.389C260.164 114.371 260.187 115.346 260.209 116.328C259.228 116.35 258.252 116.372 257.271 116.395Z" fill="url(#paint20_linear_1_20)"/>
<path d="M285.072 139.288C285.038 137.775 285.003 136.256 284.968 134.743C284.958 134.311 284.579 133.949 284.147 133.959C282.634 133.993 281.115 134.028 279.602 134.063C279.169 134.073 278.807 134.452 278.817 134.884C278.852 136.397 278.886 137.916 278.921 139.429C278.931 139.862 279.31 140.224 279.743 140.214C281.256 140.179 282.775 140.145 284.288 140.11C284.521 140.105 284.7 140.013 284.826 139.881C284.835 139.872 284.84 139.866 284.849 139.857C284.854 139.851 284.863 139.843 284.869 139.837C284.994 139.711 285.078 139.528 285.072 139.288ZM280.509 138.592C280.487 137.611 280.464 136.635 280.442 135.654C281.423 135.631 282.399 135.609 283.38 135.586C283.403 136.568 283.425 137.543 283.448 138.525C282.466 138.547 281.491 138.57 280.509 138.592Z" fill="url(#paint21_linear_1_20)"/>
<path d="M192.801 72.8742C192.766 71.3612 192.731 69.8424 192.697 68.3294C192.687 67.8971 192.307 67.5346 191.875 67.5445C190.362 67.5792 188.843 67.614 187.33 67.6487C186.898 67.6586 186.536 68.0381 186.545 68.4704C186.58 69.9834 186.615 71.5022 186.65 73.0152C186.66 73.4475 187.039 73.81 187.471 73.8001C188.984 73.7654 190.503 73.7305 192.016 73.6959C192.25 73.6905 192.429 73.5987 192.554 73.4673C192.563 73.4583 192.569 73.4523 192.577 73.4434C192.583 73.4374 192.592 73.4284 192.597 73.4224C192.723 73.2968 192.806 73.1137 192.801 72.8742ZM188.238 72.1781C188.215 71.1967 188.193 70.2211 188.17 69.2397C189.152 69.2172 190.127 69.1949 191.109 69.1724C191.131 70.1538 191.154 71.1293 191.176 72.1107C190.195 72.1332 189.216 72.1527 188.238 72.1781Z" fill="url(#paint22_linear_1_20)"/>
<path d="M215.875 95.4152C215.84 93.9022 215.805 92.3834 215.771 90.8704C215.761 90.4381 215.381 90.0756 214.949 90.0855C213.436 90.1202 211.917 90.1551 210.404 90.1897C209.972 90.1997 209.609 90.5791 209.619 91.0114C209.654 92.5244 209.689 94.0433 209.723 95.5563C209.733 95.9885 210.113 96.351 210.545 96.3411C212.058 96.3064 213.577 96.2716 215.09 96.2369C215.324 96.2315 215.503 96.1397 215.628 96.0083C215.637 95.9993 215.642 95.9933 215.651 95.9844C215.657 95.9784 215.665 95.9694 215.671 95.9634C215.797 95.8378 215.88 95.6547 215.875 95.4152ZM211.311 94.7191C211.289 93.7377 211.267 92.7621 211.244 91.7807C212.226 91.7582 213.201 91.7359 214.183 91.7134C214.205 92.6948 214.227 93.6703 214.25 94.6517C213.268 94.6742 212.29 94.6938 211.311 94.7191Z" fill="url(#paint23_linear_1_20)"/>
<path d="M239.115 117.612C239.081 116.099 239.046 114.581 239.011 113.068C239.001 112.635 238.622 112.273 238.19 112.283C236.677 112.318 235.158 112.352 233.645 112.387C233.212 112.397 232.85 112.776 232.86 113.209C232.895 114.722 232.929 116.241 232.964 117.754C232.974 118.186 233.353 118.548 233.786 118.538C235.299 118.504 236.818 118.469 238.331 118.434C238.564 118.429 238.743 118.337 238.869 118.206C238.877 118.197 238.883 118.191 238.892 118.182C238.897 118.176 238.906 118.167 238.912 118.161C239.037 118.035 239.121 117.852 239.115 117.612ZM234.552 116.916C234.53 115.935 234.507 114.959 234.485 113.978C235.466 113.955 236.442 113.933 237.423 113.911C237.446 114.892 237.468 115.868 237.491 116.849C236.509 116.872 235.531 116.891 234.552 116.916Z" fill="url(#paint24_linear_1_20)"/>
<path d="M262.356 139.81C262.321 138.297 262.286 136.778 262.251 135.265C262.242 134.833 261.862 134.47 261.43 134.48C259.917 134.515 258.398 134.55 256.885 134.584C256.453 134.594 256.09 134.974 256.1 135.406C256.135 136.919 256.17 138.438 256.204 139.951C256.214 140.383 256.594 140.746 257.026 140.736C258.539 140.701 260.058 140.666 261.571 140.631C261.804 140.626 261.984 140.534 262.109 140.403C262.118 140.394 262.123 140.388 262.132 140.379C262.138 140.373 262.146 140.364 262.152 140.358C262.278 140.232 262.361 140.049 262.356 139.81ZM257.792 139.114C257.77 138.132 257.748 137.157 257.725 136.175C258.707 136.153 259.682 136.13 260.663 136.108C260.686 137.089 260.708 138.065 260.731 139.046C259.749 139.069 258.774 139.091 257.792 139.114Z" fill="url(#paint25_linear_1_20)"/>
<path d="M285.594 162.009C285.559 160.496 285.524 158.977 285.49 157.464C285.48 157.032 285.1 156.669 284.668 156.679C283.155 156.714 281.636 156.749 280.123 156.783C279.691 156.793 279.329 157.173 279.338 157.605C279.373 159.118 279.408 160.637 279.443 162.15C279.452 162.582 279.832 162.945 280.264 162.935C281.777 162.9 283.296 162.865 284.809 162.831C285.043 162.825 285.222 162.733 285.347 162.602C285.356 162.593 285.362 162.587 285.37 162.578C285.376 162.572 285.385 162.563 285.39 162.557C285.516 162.432 285.599 162.248 285.594 162.009ZM281.031 161.313C281.008 160.331 280.986 159.356 280.963 158.374C281.945 158.352 282.92 158.33 283.902 158.307C283.924 159.289 283.947 160.264 283.969 161.245C282.988 161.268 282.012 161.29 281.031 161.313Z" fill="url(#paint26_linear_1_20)"/>
<path d="M169.916 73.7411C169.882 72.2281 169.847 70.7092 169.812 69.1962C169.803 68.7931 169.477 68.4587 169.087 68.418C169.055 68.4158 169.026 68.4106 168.991 68.4114C167.478 68.4461 165.959 68.4809 164.446 68.5156C164.014 68.5255 163.651 68.905 163.661 69.3373C163.696 70.8503 163.73 72.3691 163.765 73.8821C163.766 73.9172 163.772 73.9462 163.776 73.9783C163.835 74.3656 164.184 74.6762 164.587 74.6669C166.1 74.6322 167.619 74.5974 169.132 74.5627C169.365 74.5574 169.544 74.4656 169.67 74.3341C169.679 74.3252 169.684 74.3192 169.693 74.3102C169.699 74.3043 169.707 74.2953 169.713 74.2893C169.838 74.1578 169.922 73.9747 169.916 73.7411ZM165.356 73.042C165.351 72.8083 165.345 72.5746 165.34 72.341C165.323 71.5932 165.306 70.8455 165.289 70.1036C166.037 70.0865 166.784 70.0693 167.526 70.0523C167.76 70.0469 167.994 70.0416 168.227 70.0362C168.25 71.0176 168.272 71.9932 168.295 72.9746C167.313 72.9971 166.335 73.0166 165.356 73.042Z" fill="url(#paint27_linear_1_20)"/>
<path d="M193.156 95.9387C193.122 94.4257 193.087 92.9068 193.052 91.3938C193.042 90.9615 192.663 90.5991 192.231 90.609C190.718 90.6437 189.199 90.6785 187.686 90.7132C187.253 90.7231 186.891 91.1026 186.901 91.5349C186.936 93.0479 186.97 94.5667 187.005 96.0797C187.015 96.512 187.394 96.8744 187.827 96.8645C189.34 96.8298 190.859 96.795 192.372 96.7603C192.605 96.755 192.784 96.6632 192.91 96.5317C192.918 96.5228 192.924 96.5168 192.933 96.5078C192.938 96.5018 192.947 96.4929 192.953 96.4869C193.081 96.3583 193.165 96.1752 193.156 95.9387ZM188.596 95.2396C188.574 94.2581 188.551 93.2826 188.529 92.3012C189.51 92.2787 190.486 92.2563 191.467 92.2338C191.49 93.2152 191.512 94.1908 191.534 95.1722C190.553 95.1947 189.574 95.2142 188.596 95.2396Z" fill="url(#paint28_linear_1_20)"/>
<path d="M216.393 118.136C216.358 116.623 216.323 115.104 216.289 113.591C216.279 113.159 215.899 112.796 215.467 112.806C213.954 112.841 212.435 112.876 210.922 112.91C210.49 112.92 210.127 113.3 210.137 113.732C210.172 115.245 210.207 116.764 210.241 118.277C210.251 118.709 210.631 119.072 211.063 119.062C212.576 119.027 214.095 118.992 215.608 118.958C215.842 118.952 216.021 118.86 216.146 118.729C216.155 118.72 216.161 118.714 216.169 118.705C216.175 118.699 216.183 118.69 216.189 118.684C216.318 118.556 216.401 118.372 216.393 118.136ZM211.832 117.437C211.81 116.455 211.788 115.48 211.765 114.498C212.746 114.476 213.722 114.454 214.703 114.431C214.726 115.412 214.748 116.388 214.771 117.369C213.789 117.392 212.811 117.411 211.832 117.437Z" fill="url(#paint29_linear_1_20)"/>
<path d="M239.633 140.335C239.598 138.822 239.563 137.303 239.529 135.79C239.519 135.358 239.139 134.996 238.707 135.005C237.194 135.04 235.675 135.075 234.162 135.11C233.73 135.12 233.368 135.499 233.377 135.931C233.412 137.444 233.447 138.963 233.482 140.476C233.492 140.908 233.871 141.271 234.303 141.261C235.816 141.226 237.335 141.192 238.848 141.157C239.082 141.151 239.261 141.06 239.386 140.928C239.395 140.919 239.401 140.913 239.409 140.904C239.415 140.898 239.424 140.889 239.429 140.883C239.558 140.755 239.641 140.572 239.633 140.335ZM235.073 139.636C235.05 138.655 235.028 137.679 235.005 136.698C235.987 136.675 236.962 136.653 237.944 136.63C237.966 137.612 237.989 138.587 238.011 139.569C237.03 139.591 236.054 139.614 235.073 139.636Z" fill="url(#paint30_linear_1_20)"/>
<path d="M262.871 162.53C262.836 161.017 262.802 159.499 262.767 157.986C262.757 157.553 262.378 157.191 261.945 157.201C260.432 157.235 258.913 157.27 257.4 157.305C256.968 157.315 256.606 157.694 256.616 158.127C256.65 159.64 256.685 161.159 256.72 162.672C256.73 163.104 257.109 163.466 257.541 163.456C259.054 163.422 260.573 163.387 262.086 163.352C262.32 163.347 262.499 163.255 262.625 163.124C262.633 163.115 262.639 163.109 262.647 163.1C262.653 163.094 262.662 163.085 262.667 163.079C262.796 162.95 262.879 162.767 262.871 162.53ZM258.311 161.831C258.288 160.85 258.266 159.874 258.243 158.893C259.225 158.87 260.2 158.848 261.182 158.826C261.204 159.807 261.227 160.783 261.249 161.764C260.268 161.787 259.292 161.809 258.311 161.831Z" fill="url(#paint31_linear_1_20)"/>
<path d="M286.11 184.728C286.075 183.215 286.04 181.696 286.005 180.183C285.995 179.751 285.616 179.388 285.184 179.398C283.671 179.433 282.152 179.468 280.639 179.502C280.207 179.512 279.844 179.892 279.854 180.324C279.889 181.837 279.924 183.356 279.958 184.869C279.968 185.301 280.348 185.664 280.78 185.654C282.293 185.619 283.812 185.584 285.325 185.549C285.558 185.544 285.737 185.452 285.863 185.321C285.872 185.312 285.877 185.306 285.886 185.297C285.892 185.291 285.9 185.282 285.906 185.276C286.034 185.147 286.118 184.964 286.11 184.728ZM281.549 184.029C281.527 183.047 281.504 182.072 281.482 181.09C282.463 181.068 283.439 181.045 284.42 181.023C284.443 182.004 284.465 182.98 284.488 183.961C283.506 183.984 282.531 184.006 281.549 184.029Z" fill="url(#paint32_linear_1_20)"/>
<path d="M170.438 96.4602C170.403 94.9472 170.368 93.4283 170.334 91.9153C170.324 91.483 169.944 91.1206 169.512 91.1305C167.999 91.1652 166.48 91.2 164.967 91.2347C164.535 91.2446 164.172 91.6241 164.182 92.0563C164.217 93.5693 164.252 95.0882 164.286 96.6012C164.296 97.0335 164.676 97.3959 165.108 97.386C166.621 97.3513 168.14 97.3165 169.653 97.2818C169.886 97.2765 170.066 97.1847 170.191 97.0532C170.2 97.0442 170.205 97.0383 170.214 97.0293C170.22 97.0233 170.228 97.0144 170.234 97.0084C170.363 96.8798 170.446 96.6967 170.438 96.4602ZM165.877 95.761C165.855 94.7796 165.832 93.8041 165.81 92.8227C166.791 92.8002 167.767 92.7778 168.748 92.7553C168.771 93.7367 168.793 94.7123 168.816 95.6937C167.834 95.7162 166.856 95.7357 165.877 95.761Z" fill="url(#paint33_linear_1_20)"/>
<path d="M193.676 118.657C193.641 117.144 193.606 115.626 193.572 114.113C193.562 113.68 193.182 113.318 192.75 113.328C191.237 113.362 189.718 113.397 188.205 113.432C187.773 113.442 187.411 113.821 187.42 114.254C187.455 115.767 187.49 117.285 187.525 118.798C187.535 119.231 187.914 119.593 188.346 119.583C189.859 119.549 191.378 119.514 192.891 119.479C193.125 119.474 193.304 119.382 193.429 119.25C193.438 119.241 193.444 119.236 193.452 119.227C193.458 119.221 193.467 119.212 193.472 119.206C193.601 119.077 193.684 118.894 193.676 118.657ZM189.116 117.958C189.093 116.977 189.071 116.001 189.048 115.02C190.03 114.997 191.005 114.975 191.987 114.953C192.009 115.934 192.031 116.91 192.054 117.891C191.073 117.913 190.094 117.933 189.116 117.958Z" fill="url(#paint34_linear_1_20)"/>
<path d="M216.914 140.855C216.88 139.342 216.845 137.823 216.81 136.31C216.8 135.878 216.421 135.515 215.988 135.525C214.475 135.56 212.957 135.595 211.444 135.629C211.011 135.639 210.649 136.019 210.659 136.451C210.693 137.964 210.728 139.483 210.763 140.996C210.773 141.428 211.152 141.79 211.585 141.781C213.098 141.746 214.616 141.711 216.129 141.676C216.363 141.671 216.542 141.579 216.668 141.448C216.676 141.439 216.682 141.433 216.691 141.424C216.696 141.418 216.705 141.409 216.711 141.403C216.839 141.274 216.923 141.091 216.914 140.855ZM212.354 140.156C212.331 139.174 212.309 138.199 212.287 137.217C213.268 137.195 214.244 137.172 215.225 137.15C215.247 138.131 215.27 139.107 215.292 140.088C214.311 140.111 213.332 140.13 212.354 140.156Z" fill="url(#paint35_linear_1_20)"/>
<path d="M240.154 163.054C240.12 161.541 240.085 160.022 240.05 158.509C240.04 158.077 239.661 157.714 239.229 157.724C237.716 157.759 236.197 157.794 234.684 157.828C234.252 157.838 233.889 158.218 233.899 158.65C233.934 160.163 233.968 161.682 234.003 163.195C234.013 163.627 234.392 163.99 234.825 163.98C236.338 163.945 237.857 163.91 239.37 163.876C239.603 163.87 239.782 163.778 239.908 163.647C239.917 163.638 239.922 163.632 239.931 163.623C239.936 163.617 239.945 163.608 239.951 163.602C240.079 163.474 240.163 163.29 240.154 163.054ZM235.594 162.355C235.572 161.373 235.549 160.398 235.527 159.416C236.508 159.394 237.484 159.372 238.465 159.349C238.488 160.33 238.51 161.306 238.532 162.287C237.551 162.31 236.576 162.332 235.594 162.355Z" fill="url(#paint36_linear_1_20)"/>
<path d="M263.393 185.251C263.358 183.738 263.323 182.219 263.289 180.706C263.279 180.274 262.899 179.912 262.467 179.922C260.954 179.956 259.435 179.991 257.922 180.026C257.49 180.036 257.127 180.415 257.137 180.847C257.172 182.36 257.207 183.879 257.241 185.392C257.251 185.824 257.631 186.187 258.063 186.177C259.576 186.142 261.095 186.108 262.608 186.073C262.842 186.067 263.021 185.976 263.146 185.844C263.155 185.835 263.16 185.829 263.169 185.82C263.175 185.814 263.183 185.805 263.189 185.799C263.318 185.671 263.401 185.488 263.393 185.251ZM258.832 184.552C258.81 183.571 258.788 182.595 258.765 181.614C259.746 181.591 260.722 181.569 261.703 181.546C261.726 182.528 261.748 183.503 261.771 184.485C260.789 184.507 259.814 184.53 258.832 184.552Z" fill="url(#paint37_linear_1_20)"/>
<path d="M286.631 207.446C286.596 205.933 286.562 204.415 286.527 202.902C286.517 202.469 286.137 202.107 285.705 202.117C284.192 202.151 282.673 202.186 281.16 202.221C280.728 202.231 280.366 202.61 280.376 203.043C280.41 204.556 280.445 206.075 280.48 207.588C280.49 208.02 280.869 208.382 281.301 208.372C282.814 208.338 284.333 208.303 285.846 208.268C286.08 208.263 286.259 208.171 286.385 208.04C286.393 208.031 286.399 208.025 286.407 208.016C286.413 208.01 286.422 208.001 286.427 207.995C286.556 207.866 286.639 207.683 286.631 207.446ZM282.071 206.747C282.048 205.766 282.026 204.79 282.003 203.809C282.985 203.787 283.96 203.764 284.942 203.742C284.964 204.723 284.987 205.699 285.009 206.68C284.028 206.703 283.052 206.725 282.071 206.747Z" fill="url(#paint38_linear_1_20)"/>
<path d="M147.717 96.9813C147.682 95.4683 147.647 93.9495 147.613 92.4365C147.603 92.0334 147.277 91.6989 146.888 91.6582C146.855 91.656 146.826 91.6508 146.791 91.6516C145.278 91.6863 143.759 91.7211 142.246 91.7558C141.814 91.7657 141.451 92.1452 141.461 92.5775C141.496 94.0905 141.531 95.6093 141.565 97.1223C141.566 97.1574 141.573 97.1865 141.576 97.2185C141.635 97.6059 141.984 97.9164 142.387 97.9072C143.9 97.8725 145.419 97.8376 146.932 97.803C147.166 97.7976 147.345 97.7058 147.47 97.5744C147.479 97.5654 147.485 97.5594 147.493 97.5505C147.499 97.5445 147.507 97.5355 147.513 97.5296C147.639 97.3981 147.722 97.215 147.717 96.9813ZM143.156 96.2822C143.151 96.0485 143.146 95.8149 143.14 95.5812C143.123 94.8335 143.106 94.0857 143.089 93.3438C143.837 93.3267 144.585 93.3095 145.326 93.2925C145.56 93.2872 145.794 93.2818 146.027 93.2765C146.05 94.2579 146.072 95.2334 146.095 96.2148C145.113 96.2373 144.135 96.2569 143.156 96.2822Z" fill="url(#paint39_linear_1_20)"/>
<path d="M170.957 119.179C170.923 117.666 170.888 116.147 170.853 114.634C170.843 114.202 170.464 113.839 170.031 113.849C168.518 113.884 167 113.919 165.487 113.953C165.054 113.963 164.692 114.343 164.702 114.775C164.736 116.288 164.771 117.807 164.806 119.32C164.816 119.752 165.195 120.115 165.627 120.105C167.141 120.07 168.659 120.035 170.172 120.001C170.406 119.995 170.585 119.903 170.711 119.772C170.719 119.763 170.725 119.757 170.734 119.748C170.739 119.742 170.748 119.733 170.753 119.727C170.882 119.599 170.966 119.415 170.957 119.179ZM166.397 118.48C166.374 117.498 166.352 116.523 166.33 115.541C167.311 115.519 168.286 115.497 169.268 115.474C169.29 116.455 169.313 117.431 169.335 118.412C168.354 118.435 167.375 118.454 166.397 118.48Z" fill="url(#paint40_linear_1_20)"/>
<path d="M194.197 141.376C194.163 139.863 194.128 138.344 194.093 136.831C194.083 136.399 193.704 136.037 193.272 136.047C191.759 136.081 190.24 136.116 188.727 136.151C188.294 136.161 187.932 136.54 187.942 136.972C187.977 138.485 188.011 140.004 188.046 141.517C188.056 141.949 188.435 142.312 188.868 142.302C190.381 142.267 191.9 142.232 193.413 142.198C193.646 142.192 193.825 142.101 193.951 141.969C193.96 141.96 193.965 141.954 193.974 141.945C193.979 141.939 193.988 141.93 193.994 141.924C194.122 141.796 194.206 141.613 194.197 141.376ZM189.637 140.677C189.615 139.696 189.592 138.72 189.57 137.739C190.551 137.716 191.527 137.694 192.508 137.671C192.531 138.653 192.553 139.628 192.575 140.61C191.594 140.632 190.616 140.652 189.637 140.677Z" fill="url(#paint41_linear_1_20)"/>
<path d="M217.436 163.573C217.401 162.06 217.366 160.542 217.332 159.029C217.322 158.596 216.942 158.234 216.51 158.244C214.997 158.278 213.478 158.313 211.965 158.348C211.533 158.358 211.17 158.737 211.18 159.17C211.215 160.683 211.25 162.201 211.284 163.714C211.294 164.147 211.674 164.509 212.106 164.499C213.619 164.465 215.138 164.43 216.651 164.395C216.885 164.39 217.064 164.298 217.189 164.166C217.198 164.158 217.203 164.152 217.212 164.143C217.218 164.137 217.226 164.128 217.232 164.122C217.361 163.993 217.444 163.81 217.436 163.573ZM212.875 162.874C212.853 161.893 212.831 160.917 212.808 159.936C213.789 159.913 214.765 159.891 215.746 159.869C215.769 160.85 215.791 161.826 215.814 162.807C214.832 162.829 213.857 162.852 212.875 162.874Z" fill="url(#paint42_linear_1_20)"/>
<path d="M240.674 185.771C240.639 184.258 240.605 182.739 240.57 181.226C240.56 180.794 240.18 180.431 239.748 180.441C238.235 180.476 236.716 180.511 235.203 180.545C234.771 180.555 234.409 180.935 234.419 181.367C234.453 182.88 234.488 184.399 234.523 185.912C234.533 186.344 234.912 186.706 235.344 186.697C236.857 186.662 238.376 186.627 239.889 186.592C240.123 186.587 240.302 186.495 240.428 186.364C240.436 186.355 240.442 186.349 240.45 186.34C240.456 186.334 240.465 186.325 240.47 186.319C240.599 186.19 240.682 186.007 240.674 185.771ZM236.114 185.072C236.091 184.09 236.069 183.115 236.046 182.133C237.028 182.111 238.003 182.088 238.985 182.066C239.007 183.047 239.03 184.023 239.052 185.004C238.071 185.027 237.095 185.049 236.114 185.072Z" fill="url(#paint43_linear_1_20)"/>
<path d="M263.912 207.968C263.877 206.455 263.842 204.936 263.808 203.423C263.798 202.991 263.418 202.628 262.986 202.638C261.473 202.673 259.954 202.708 258.441 202.742C258.009 202.752 257.646 203.132 257.656 203.564C257.691 205.077 257.726 206.596 257.76 208.109C257.77 208.541 258.15 208.904 258.582 208.894C260.095 208.859 261.614 208.824 263.127 208.79C263.361 208.784 263.54 208.692 263.665 208.561C263.674 208.552 263.68 208.546 263.688 208.537C263.694 208.531 263.702 208.522 263.708 208.516C263.837 208.388 263.92 208.204 263.912 207.968ZM259.351 207.269C259.329 206.287 259.307 205.312 259.284 204.33C260.266 204.308 261.241 204.286 262.222 204.263C262.245 205.245 262.267 206.22 262.29 207.201C261.308 207.224 260.333 207.246 259.351 207.269Z" fill="url(#paint44_linear_1_20)"/>
<path d="M148.238 119.7C148.203 118.187 148.168 116.669 148.134 115.156C148.124 114.723 147.744 114.361 147.312 114.371C145.799 114.405 144.28 114.44 142.767 114.475C142.335 114.485 141.973 114.864 141.982 115.297C142.017 116.81 142.052 118.328 142.087 119.841C142.097 120.274 142.476 120.636 142.908 120.626C144.421 120.592 145.94 120.557 147.453 120.522C147.687 120.517 147.866 120.425 147.991 120.293C148 120.284 148.006 120.278 148.014 120.27C148.02 120.264 148.029 120.255 148.034 120.249C148.163 120.12 148.246 119.937 148.238 119.7ZM143.678 119.001C143.655 118.02 143.633 117.044 143.61 116.063C144.592 116.04 145.567 116.018 146.549 115.996C146.571 116.977 146.594 117.952 146.616 118.934C145.635 118.956 144.656 118.976 143.678 119.001Z" fill="url(#paint45_linear_1_20)"/>
<path d="M171.479 141.898C171.444 140.385 171.409 138.866 171.375 137.353C171.365 136.921 170.985 136.558 170.553 136.568C169.04 136.603 167.521 136.637 166.008 136.672C165.576 136.682 165.213 137.062 165.223 137.494C165.258 139.007 165.293 140.526 165.327 142.039C165.337 142.471 165.717 142.833 166.149 142.823C167.662 142.789 169.181 142.754 170.694 142.719C170.928 142.714 171.107 142.622 171.232 142.491C171.241 142.482 171.246 142.476 171.255 142.467C171.261 142.461 171.269 142.452 171.275 142.446C171.404 142.317 171.487 142.134 171.479 141.898ZM166.918 141.199C166.896 140.217 166.873 139.242 166.851 138.26C167.832 138.238 168.808 138.215 169.789 138.193C169.812 139.174 169.834 140.15 169.857 141.131C168.875 141.154 167.897 141.173 166.918 141.199Z" fill="url(#paint46_linear_1_20)"/>
<path d="M194.719 164.095C194.684 162.582 194.649 161.063 194.615 159.55C194.605 159.118 194.225 158.755 193.793 158.765C192.28 158.8 190.761 158.835 189.248 158.869C188.816 158.879 188.454 159.259 188.463 159.691C188.498 161.204 188.533 162.723 188.568 164.236C188.577 164.668 188.957 165.031 189.389 165.021C190.902 164.986 192.421 164.951 193.934 164.917C194.168 164.911 194.347 164.819 194.472 164.688C194.481 164.679 194.487 164.673 194.495 164.664C194.501 164.658 194.51 164.649 194.515 164.643C194.644 164.515 194.727 164.331 194.719 164.095ZM190.159 163.396C190.136 162.414 190.114 161.439 190.091 160.457C191.073 160.435 192.048 160.413 193.03 160.39C193.052 161.371 193.074 162.347 193.097 163.328C192.116 163.351 191.137 163.37 190.159 163.396Z" fill="url(#paint47_linear_1_20)"/>
<path d="M217.955 186.292C217.921 184.779 217.886 183.26 217.851 181.747C217.841 181.315 217.462 180.953 217.029 180.963C215.516 180.997 213.998 181.032 212.485 181.067C212.052 181.077 211.69 181.456 211.7 181.888C211.734 183.401 211.769 184.92 211.804 186.433C211.814 186.865 212.193 187.228 212.626 187.218C214.139 187.183 215.657 187.149 217.17 187.114C217.404 187.108 217.583 187.017 217.709 186.885C217.717 186.876 217.723 186.87 217.732 186.861C217.737 186.855 217.746 186.846 217.752 186.84C217.88 186.712 217.964 186.529 217.955 186.292ZM213.395 185.593C213.372 184.612 213.35 183.636 213.328 182.655C214.309 182.632 215.285 182.61 216.266 182.587C216.288 183.569 216.311 184.544 216.333 185.526C215.352 185.548 214.376 185.571 213.395 185.593Z" fill="url(#paint48_linear_1_20)"/>
<path d="M241.195 208.489C241.161 206.976 241.126 205.458 241.091 203.945C241.081 203.512 240.702 203.15 240.27 203.16C238.757 203.194 237.238 203.229 235.725 203.264C235.293 203.274 234.93 203.653 234.94 204.086C234.975 205.599 235.009 207.117 235.044 208.63C235.054 209.063 235.434 209.425 235.866 209.415C237.379 209.381 238.898 209.346 240.411 209.311C240.644 209.306 240.823 209.214 240.949 209.082C240.958 209.074 240.963 209.068 240.972 209.059C240.978 209.053 240.986 209.044 240.992 209.038C241.12 208.909 241.204 208.726 241.195 208.489ZM236.635 207.79C236.613 206.809 236.59 205.833 236.568 204.852C237.549 204.829 238.525 204.807 239.506 204.785C239.529 205.766 239.551 206.742 239.574 207.723C238.592 207.745 237.617 207.768 236.635 207.79Z" fill="url(#paint49_linear_1_20)"/>
<path d="M264.433 230.687C264.399 229.174 264.364 227.655 264.329 226.142C264.319 225.71 263.94 225.347 263.507 225.357C261.994 225.392 260.476 225.427 258.963 225.461C258.53 225.471 258.168 225.851 258.178 226.283C258.212 227.796 258.247 229.315 258.282 230.828C258.292 231.26 258.671 231.622 259.104 231.613C260.617 231.578 262.135 231.543 263.648 231.508C263.882 231.503 264.061 231.411 264.187 231.28C264.195 231.271 264.201 231.265 264.21 231.256C264.215 231.25 264.224 231.241 264.23 231.235C264.358 231.106 264.442 230.923 264.433 230.687ZM259.873 229.988C259.85 229.006 259.828 228.031 259.806 227.049C260.787 227.027 261.763 227.004 262.744 226.982C262.766 227.963 262.789 228.939 262.811 229.92C261.83 229.943 260.854 229.965 259.873 229.988Z" fill="url(#paint50_linear_1_20)"/>
<path d="M213.795 4.54217C213.76 3.02917 213.726 1.51033 213.691 -0.00267197C213.681 -0.434959 213.302 -0.797403 212.869 -0.787491C211.356 -0.752802 209.837 -0.717987 208.324 -0.683298C207.892 -0.673386 207.53 -0.293933 207.54 0.138354C207.574 1.65136 207.609 3.17021 207.644 4.68322C207.654 5.1155 208.033 5.47795 208.465 5.46803C209.978 5.43335 211.497 5.39851 213.01 5.36382C213.244 5.35847 213.423 5.26669 213.549 5.13523C213.557 5.12626 213.563 5.12028 213.571 5.11132C213.577 5.10534 213.586 5.09638 213.591 5.0904C213.717 4.95894 213.798 4.77883 213.795 4.54217ZM209.232 3.84607C209.209 2.86466 209.187 1.88909 209.165 0.907681C210.146 0.88518 211.122 0.862821 212.103 0.84032C212.125 1.82173 212.148 2.79728 212.17 3.77869C211.192 3.79821 210.21 3.82072 209.232 3.84607Z" fill="url(#paint51_linear_1_20)"/>
<path d="M191.076 5.06367C191.042 3.55067 191.007 2.03182 190.972 0.518812C190.962 0.0865257 190.583 -0.275918 190.15 -0.266007C188.637 -0.231317 187.119 -0.196485 185.606 -0.161795C185.173 -0.151884 184.811 0.22757 184.821 0.659857C184.855 2.17286 184.89 3.6917 184.925 5.2047C184.935 5.63699 185.314 5.99943 185.747 5.98952C187.26 5.95483 188.778 5.92002 190.291 5.88533C190.525 5.87997 190.704 5.78819 190.83 5.65673C190.838 5.64777 190.844 5.64179 190.853 5.63282C190.858 5.62685 190.867 5.61788 190.873 5.6119C190.998 5.48044 191.079 5.30033 191.076 5.06367ZM186.513 4.36756C186.491 3.38615 186.468 2.41059 186.446 1.42918C187.427 1.40668 188.403 1.38431 189.384 1.3618C189.407 2.34321 189.429 3.31879 189.451 4.30019C188.473 4.31971 187.491 4.3422 186.513 4.36756Z" fill="url(#paint52_linear_1_20)"/>
<path d="M168.356 5.58321C168.321 4.0702 168.286 2.55135 168.251 1.03834C168.242 0.606057 167.862 0.243613 167.43 0.253524C165.917 0.288214 164.398 0.323047 162.885 0.357736C162.453 0.367648 162.09 0.747101 162.1 1.17939C162.135 2.69239 162.17 4.21123 162.204 5.72423C162.214 6.15652 162.594 6.51896 163.026 6.50905C164.539 6.47436 166.058 6.43955 167.571 6.40486C167.804 6.3995 167.984 6.30772 168.109 6.17626C168.118 6.1673 168.123 6.16132 168.132 6.15235C168.138 6.14638 168.146 6.13741 168.152 6.13144C168.275 6.00296 168.358 5.81986 168.356 5.58321ZM163.789 4.88423C163.767 3.90282 163.745 2.92727 163.722 1.94586C164.704 1.92336 165.679 1.90098 166.66 1.87848C166.683 2.85989 166.705 3.83546 166.728 4.81687C165.752 4.83924 164.771 4.86173 163.789 4.88423Z" fill="url(#paint53_linear_1_20)"/>
<path d="M191.596 27.7804C191.561 26.2674 191.526 24.7486 191.492 23.2355C191.482 22.8033 191.102 22.4408 190.67 22.4507C189.157 22.4854 187.638 22.5203 186.125 22.5549C185.693 22.5649 185.33 22.9443 185.34 23.3766C185.375 24.8896 185.41 26.4084 185.445 27.9214C185.454 28.3537 185.834 28.7162 186.266 28.7063C187.779 28.6716 189.298 28.6368 190.811 28.6021C191.045 28.5967 191.224 28.5049 191.349 28.3735C191.358 28.3645 191.364 28.3585 191.372 28.3496C191.378 28.3436 191.386 28.3346 191.392 28.3286C191.515 28.2002 191.598 28.0171 191.596 27.7804ZM187.033 27.0843C187.01 26.1029 186.988 25.1273 186.965 24.1459C187.947 24.1234 188.922 24.101 189.904 24.0785C189.926 25.0599 189.949 26.0355 189.971 27.0169C188.992 27.0364 188.011 27.0589 187.033 27.0843Z" fill="url(#paint54_linear_1_20)"/>
<path d="M145.639 6.10467C145.604 4.59167 145.569 3.07283 145.535 1.55983C145.525 1.12754 145.145 0.765097 144.713 0.775009C143.2 0.809698 141.681 0.844513 140.168 0.879202C139.736 0.889114 139.373 1.26857 139.383 1.70085C139.418 3.21386 139.453 4.73271 139.488 6.24572C139.497 6.678 139.877 7.04045 140.309 7.03053C141.822 6.99585 143.341 6.96101 144.854 6.92632C145.088 6.92097 145.267 6.82919 145.392 6.69773C145.401 6.68876 145.407 6.6828 145.415 6.67384C145.421 6.66786 145.429 6.6589 145.435 6.65292C145.558 6.52444 145.641 6.34133 145.639 6.10467ZM141.073 5.40571C141.05 4.42431 141.028 3.44873 141.005 2.46732C141.987 2.44482 142.962 2.42246 143.944 2.39996C143.966 3.38137 143.989 4.35693 144.011 5.33834C143.033 5.36369 142.054 5.38321 141.073 5.40571Z" fill="url(#paint55_linear_1_20)"/>
<path d="M168.877 28.3019C168.842 26.7889 168.808 25.2701 168.773 23.7571C168.763 23.3248 168.384 22.9624 167.951 22.9723C166.438 23.007 164.919 23.0418 163.406 23.0765C162.974 23.0864 162.612 23.4658 162.622 23.8981C162.656 25.4111 162.691 26.93 162.726 28.443C162.736 28.8753 163.115 29.2377 163.547 29.2278C165.06 29.1931 166.579 29.1583 168.092 29.1236C168.326 29.1182 168.505 29.0265 168.631 28.895C168.639 28.886 168.645 28.8801 168.653 28.8711C168.659 28.8651 168.668 28.8562 168.673 28.8502C168.796 28.7217 168.88 28.5386 168.877 28.3019ZM164.314 27.6058C164.291 26.6244 164.269 25.6489 164.247 24.6674C165.228 24.6449 166.204 24.6226 167.185 24.6001C167.207 25.5815 167.23 26.557 167.252 27.5385C166.271 27.561 165.292 27.5805 164.314 27.6058Z" fill="url(#paint56_linear_1_20)"/>
<path d="M122.92 6.62421C122.885 5.1112 122.851 3.59236 122.816 2.07936C122.806 1.64707 122.427 1.28463 121.994 1.29454C120.481 1.32923 118.962 1.36404 117.449 1.39873C117.017 1.40864 116.655 1.7881 116.665 2.22039C116.699 3.73339 116.734 5.25224 116.769 6.76525C116.779 7.19753 117.158 7.55998 117.59 7.55007C119.103 7.51538 120.622 7.48055 122.135 7.44586C122.369 7.4405 122.548 7.34873 122.674 7.21726C122.682 7.2083 122.688 7.20232 122.696 7.19335C122.702 7.18738 122.711 7.17841 122.716 7.17244C122.839 7.04396 122.923 6.86086 122.92 6.62421ZM118.354 5.92525C118.331 4.94384 118.309 3.96827 118.287 2.98686C119.268 2.96436 120.244 2.942 121.225 2.9195C121.247 3.90091 121.27 4.87646 121.292 5.85787C120.314 5.88323 119.335 5.90275 118.354 5.92525Z" fill="url(#paint57_linear_1_20)"/>
<path d="M146.16 28.8214C146.126 27.3084 146.091 25.7896 146.056 24.2766C146.046 23.8443 145.667 23.4818 145.235 23.4917C143.722 23.5264 142.203 23.5612 140.69 23.5959C140.257 23.6058 139.895 23.9853 139.905 24.4176C139.94 25.9306 139.974 27.4494 140.009 28.9625C140.019 29.3947 140.398 29.7572 140.831 29.7473C142.344 29.7126 143.862 29.6777 145.375 29.6431C145.609 29.6377 145.788 29.5459 145.914 29.4145C145.922 29.4055 145.928 29.3995 145.937 29.3906C145.942 29.3846 145.951 29.3756 145.957 29.3696C146.079 29.2412 146.163 29.0581 146.16 28.8214ZM141.594 28.1225C141.572 27.141 141.549 26.1655 141.527 25.1841C142.508 25.1616 143.484 25.1392 144.465 25.1167C144.488 26.0981 144.51 27.0737 144.533 28.0551C143.554 28.0804 142.576 28.0999 141.594 28.1225Z" fill="url(#paint58_linear_1_20)"/>
<path d="M169.399 51.0207C169.364 49.5077 169.329 47.9888 169.294 46.4758C169.285 46.0436 168.905 45.6811 168.473 45.691C166.96 45.7257 165.441 45.7605 163.928 45.7952C163.496 45.8051 163.133 46.1846 163.143 46.6169C163.178 48.1299 163.213 49.6487 163.247 51.1617C163.257 51.594 163.637 51.9565 164.069 51.9466C165.582 51.9119 167.101 51.877 168.614 51.8423C168.847 51.837 169.027 51.7452 169.152 51.6137C169.161 51.6048 169.166 51.5988 169.175 51.5898C169.181 51.5839 169.189 51.5749 169.195 51.5689C169.318 51.4404 169.401 51.2573 169.399 51.0207ZM164.835 50.3246C164.813 49.3432 164.791 48.3676 164.768 47.3862C165.749 47.3637 166.725 47.3413 167.706 47.3188C167.729 48.3002 167.751 49.2758 167.774 50.2572C166.792 50.2797 165.814 50.2992 164.835 50.3246Z" fill="url(#paint59_linear_1_20)"/>
<path d="M100.197 7.14766C100.163 5.63466 100.128 4.1158 100.093 2.6028C100.083 2.17051 99.7039 1.80807 99.2716 1.81798C97.7586 1.85267 96.2398 1.8875 94.7268 1.92219C94.2945 1.9321 93.932 2.31155 93.9419 2.74384C93.9766 4.25684 94.0114 5.77568 94.0461 7.28868C94.056 7.72097 94.4355 8.08341 94.8677 8.0735C96.3807 8.03881 97.8996 8.004 99.4126 7.96931C99.6463 7.96396 99.8253 7.87218 99.9509 7.74072C99.9595 7.73175 99.9652 7.72577 99.9737 7.71681C99.9795 7.71083 99.988 7.70187 99.9937 7.69589C100.119 7.56443 100.203 7.38133 100.197 7.14766ZM95.6341 6.4457C95.6116 5.46429 95.5892 4.48873 95.5668 3.50732C96.5482 3.48482 97.5237 3.46245 98.5051 3.43995C98.5276 4.42135 98.55 5.39693 98.5725 6.37834C97.5941 6.40369 96.6155 6.4232 95.6341 6.4457Z" fill="url(#paint60_linear_1_20)"/>
<path d="M123.438 29.3469C123.403 27.8339 123.368 26.315 123.334 24.802C123.324 24.3697 122.944 24.0073 122.512 24.0172C120.999 24.0519 119.48 24.0867 117.967 24.1214C117.535 24.1313 117.172 24.5108 117.182 24.9431C117.217 26.4561 117.252 27.9749 117.286 29.4879C117.296 29.9202 117.676 30.2826 118.108 30.2727C119.621 30.238 121.14 30.2032 122.653 30.1685C122.886 30.1632 123.066 30.0714 123.191 29.9399C123.2 29.931 123.205 29.925 123.214 29.916C123.22 29.91 123.228 29.9011 123.234 29.8951C123.36 29.7636 123.443 29.5805 123.438 29.3469ZM118.874 28.6449C118.852 27.6635 118.829 26.6879 118.807 25.7065C119.788 25.684 120.764 25.6617 121.745 25.6392C121.768 26.6206 121.79 27.5961 121.813 28.5776C120.834 28.6029 119.856 28.6224 118.874 28.6449Z" fill="url(#paint61_linear_1_20)"/>
<path d="M146.676 51.5441C146.641 50.0311 146.606 48.5123 146.572 46.9993C146.562 46.567 146.182 46.2046 145.75 46.2145C144.237 46.2492 142.718 46.284 141.205 46.3187C140.773 46.3286 140.411 46.708 140.42 47.1403C140.455 48.6533 140.49 50.1722 140.525 51.6852C140.535 52.1175 140.914 52.4799 141.346 52.47C142.859 52.4353 144.378 52.4005 145.891 52.3658C146.125 52.3604 146.304 52.2687 146.429 52.1372C146.438 52.1282 146.444 52.1223 146.452 52.1133C146.458 52.1073 146.467 52.0983 146.472 52.0924C146.598 51.9609 146.681 51.7778 146.676 51.5441ZM142.116 50.845C142.093 49.8636 142.071 48.8881 142.048 47.9067C143.03 47.8842 144.005 47.8618 144.987 47.8393C145.009 48.8207 145.031 49.7963 145.054 50.7777C144.073 50.8002 143.094 50.8197 142.116 50.845Z" fill="url(#paint62_linear_1_20)"/>
<path d="M77.4826 7.6711C77.4479 6.15809 77.4131 4.63924 77.3784 3.12623C77.3685 2.69395 76.9891 2.3315 76.5568 2.34141C75.0438 2.3761 73.5249 2.41094 72.0119 2.44563C71.5796 2.45554 71.2172 2.83499 71.2271 3.26728C71.2618 4.78028 71.2966 6.29912 71.3313 7.81212C71.3412 8.24441 71.7206 8.60685 72.1529 8.59694C73.6659 8.56225 75.1847 8.52744 76.6977 8.49275C76.9314 8.48739 77.1105 8.3956 77.2361 8.26414C77.2446 8.25517 77.2503 8.24921 77.2589 8.24025C77.2646 8.23427 77.2732 8.22531 77.2789 8.21933C77.4045 8.08787 77.4879 7.90476 77.4826 7.6711ZM72.9193 6.96913C72.8968 5.98773 72.8744 5.01217 72.8519 4.03076C73.8333 4.00826 74.8089 3.98588 75.7903 3.96338C75.8128 4.94479 75.8351 5.92037 75.8576 6.90177C74.8762 6.92427 73.9007 6.94663 72.9193 6.96913Z" fill="url(#paint63_linear_1_20)"/>
<path d="M100.719 29.8664C100.684 28.3534 100.649 26.8346 100.615 25.3215C100.605 24.8893 100.225 24.5268 99.7931 24.5367C98.2801 24.5714 96.7613 24.6062 95.2483 24.6409C94.816 24.6509 94.4535 25.0303 94.4634 25.4626C94.4981 26.9756 94.5329 28.4944 94.5676 30.0074C94.5775 30.4397 94.9569 30.8022 95.3892 30.7923C96.9022 30.7576 98.4211 30.7228 99.9341 30.6881C100.168 30.6827 100.347 30.5909 100.472 30.4594C100.481 30.4505 100.487 30.4445 100.495 30.4356C100.501 30.4296 100.51 30.4206 100.515 30.4146C100.641 30.2832 100.724 30.1001 100.719 29.8664ZM96.1556 29.1644C96.1331 28.183 96.1107 27.2075 96.0882 26.2261C97.0696 26.2036 98.0452 26.1812 99.0266 26.1587C99.0491 27.1401 99.0715 28.1157 99.094 29.0971C98.1155 29.1224 97.137 29.1419 96.1556 29.1644Z" fill="url(#paint64_linear_1_20)"/>
<path d="M123.959 52.0656C123.924 50.5526 123.89 49.0338 123.855 47.5208C123.845 47.0885 123.466 46.726 123.033 46.7359C121.52 46.7706 120.001 46.8055 118.488 46.8402C118.056 46.8501 117.694 47.2295 117.704 47.6618C117.738 49.1748 117.773 50.6936 117.808 52.2067C117.818 52.6389 118.197 53.0014 118.629 52.9915C120.142 52.9568 121.661 52.922 123.174 52.8873C123.408 52.8819 123.587 52.7901 123.713 52.6587C123.721 52.6497 123.727 52.6437 123.735 52.6348C123.741 52.6288 123.75 52.6198 123.755 52.6139C123.881 52.4824 123.964 52.2993 123.959 52.0656ZM119.396 51.3637C119.373 50.3823 119.351 49.4067 119.328 48.4253C120.31 48.4028 121.285 48.3804 122.267 48.3579C122.289 49.3393 122.312 50.3149 122.334 51.2963C121.356 51.3217 120.377 51.3412 119.396 51.3637Z" fill="url(#paint65_linear_1_20)"/>
<path d="M147.197 74.2629C147.163 72.7499 147.128 71.231 147.093 69.718C147.083 69.2857 146.704 68.9233 146.272 68.9332C144.759 68.9679 143.24 69.0027 141.727 69.0374C141.294 69.0473 140.932 69.4268 140.942 69.8591C140.977 71.3721 141.011 72.8909 141.046 74.4039C141.056 74.8362 141.435 75.1986 141.868 75.1887C143.381 75.154 144.9 75.1192 146.413 75.0845C146.646 75.0792 146.825 74.9874 146.951 74.8559C146.959 74.847 146.965 74.841 146.974 74.832C146.979 74.8261 146.988 74.8171 146.994 74.8111C147.119 74.6797 147.203 74.4966 147.197 74.2629ZM142.637 73.5638C142.615 72.5824 142.592 71.6068 142.57 70.6254C143.551 70.6029 144.527 70.5805 145.508 70.558C145.531 71.5394 145.553 72.515 145.575 73.4964C144.594 73.5189 143.616 73.5384 142.637 73.5638Z" fill="url(#paint66_linear_1_20)"/>
<path d="M54.7618 8.19061C54.7271 6.6776 54.6923 5.15877 54.6577 3.64577C54.6478 3.21348 54.2683 2.85104 53.836 2.86095C52.323 2.89564 50.8042 2.93045 49.2912 2.96514C48.8589 2.97505 48.4964 3.3545 48.5063 3.78679C48.541 5.2998 48.5758 6.81865 48.6105 8.33165C48.6204 8.76394 48.9998 9.12638 49.4321 9.11647C50.9451 9.08178 52.464 9.04695 53.977 9.01226C54.2107 9.0069 54.3897 8.91513 54.5153 8.78367C54.5239 8.7747 54.5296 8.76872 54.5382 8.75976C54.5439 8.75378 54.5524 8.74484 54.5581 8.73886C54.6837 8.6074 54.7672 8.42428 54.7618 8.19061ZM50.1985 7.48866C50.176 6.50725 50.1537 5.53168 50.1312 4.55027C51.1126 4.52777 52.0881 4.50541 53.0695 4.48291C53.092 5.46432 53.1144 6.43988 53.1369 7.42128C52.1555 7.44379 51.1799 7.46616 50.1985 7.48866Z" fill="url(#paint67_linear_1_20)"/>
<path d="M78.0016 30.3879C77.967 28.8749 77.9321 27.356 77.8975 25.843C77.8876 25.4107 77.5081 25.0483 77.0758 25.0582C75.5628 25.0929 74.044 25.1277 72.531 25.1624C72.0987 25.1723 71.7363 25.5518 71.7462 25.9841C71.7808 27.4971 71.8156 29.0159 71.8503 30.5289C71.8602 30.9612 72.2397 31.3236 72.6719 31.3137C74.1849 31.279 75.7038 31.2442 77.2168 31.2095C77.4505 31.2042 77.6296 31.1124 77.7551 30.9809C77.7637 30.972 77.7694 30.966 77.778 30.957C77.7837 30.9511 77.7922 30.9421 77.7979 30.9361C77.9235 30.8047 78.007 30.6215 78.0016 30.3879ZM73.4383 29.6859C73.4158 28.7045 73.3935 27.7289 73.371 26.7475C74.3524 26.725 75.3279 26.7027 76.3093 26.6802C76.3318 27.6616 76.3542 28.6371 76.3767 29.6186C75.3983 29.6439 74.4197 29.6634 73.4383 29.6859Z" fill="url(#paint68_linear_1_20)"/>
<path d="M101.24 52.5851C101.206 51.0721 101.171 49.5533 101.136 48.0403C101.126 47.608 100.747 47.2456 100.315 47.2555C98.8016 47.2902 97.2828 47.325 95.7698 47.3597C95.3375 47.3696 94.975 47.749 94.9849 48.1813C95.0196 49.6943 95.0544 51.2132 95.0891 52.7262C95.099 53.1585 95.4784 53.5209 95.9107 53.511C97.4237 53.4763 98.9426 53.4415 100.456 53.4068C100.689 53.4014 100.868 53.3097 100.994 53.1782C101.002 53.1692 101.008 53.1633 101.017 53.1543C101.022 53.1483 101.031 53.1394 101.037 53.1334C101.162 53.0019 101.246 52.8188 101.24 52.5851ZM96.6771 51.8832C96.6546 50.9018 96.6322 49.9262 96.6097 48.9448C97.5911 48.9223 98.5667 48.8999 99.5481 48.8774C99.5706 49.8588 99.593 50.8344 99.6155 51.8158C98.637 51.8412 97.6585 51.8607 96.6771 51.8832Z" fill="url(#paint69_linear_1_20)"/>
<path d="M124.481 74.7844C124.446 73.2714 124.411 71.7525 124.376 70.2395C124.367 69.8072 123.987 69.4448 123.555 69.4547C122.042 69.4894 120.523 69.5242 119.01 69.5589C118.578 69.5688 118.215 69.9483 118.225 70.3805C118.26 71.8935 118.295 73.4124 118.329 74.9254C118.339 75.3577 118.719 75.7201 119.151 75.7102C120.664 75.6755 122.183 75.6407 123.696 75.606C123.929 75.6007 124.109 75.5089 124.234 75.3774C124.243 75.3685 124.248 75.3625 124.257 75.3535C124.263 75.3475 124.271 75.3386 124.277 75.3326C124.402 75.2011 124.486 75.018 124.481 74.7844ZM119.92 74.0853C119.898 73.1039 119.875 72.1283 119.853 71.1469C120.834 71.1244 121.81 71.102 122.791 71.0795C122.814 72.0609 122.836 73.0365 122.859 74.0179C121.877 74.0404 120.899 74.0599 119.92 74.0853Z" fill="url(#paint70_linear_1_20)"/>
<path d="M32.0387 8.70819C32.004 7.19518 31.9692 5.67635 31.9345 4.16334C31.9246 3.73106 31.5452 3.36861 31.1129 3.37852C29.5999 3.41321 28.081 3.44803 26.568 3.48272C26.1357 3.49263 25.7733 3.87208 25.7832 4.30437C25.8179 5.81737 25.8527 7.33623 25.8873 8.84923C25.8973 9.28152 26.2767 9.64396 26.709 9.63405C28.222 9.59936 29.7408 9.56453 31.2538 9.52984C31.4875 9.52448 31.6666 9.43271 31.7922 9.30124C31.8007 9.29228 31.8064 9.2863 31.815 9.27734C31.8207 9.27136 31.8293 9.26239 31.835 9.25642C31.9635 9.12781 32.047 8.94471 32.0387 8.70819ZM27.4783 8.00909C27.4558 7.02769 27.4335 6.05211 27.411 5.0707C28.3924 5.0482 29.368 5.02584 30.3494 5.00334C30.3719 5.98475 30.3942 6.96031 30.4167 7.94172C29.4353 7.96422 28.4597 7.98659 27.4783 8.00909Z" fill="url(#paint71_linear_1_20)"/>
<path d="M55.2833 30.9094C55.2486 29.3964 55.2138 27.8775 55.1791 26.3645C55.1692 25.9322 54.7898 25.5698 54.3575 25.5797C52.8445 25.6144 51.3257 25.6492 49.8127 25.6839C49.3804 25.6938 49.0179 26.0733 49.0278 26.5055C49.0625 28.0185 49.0973 29.5374 49.132 31.0504C49.1419 31.4827 49.5213 31.8451 49.9536 31.8352C51.4666 31.8005 52.9855 31.7657 54.4985 31.731C54.7321 31.7257 54.9112 31.6339 55.0368 31.5024C55.0454 31.4935 55.0511 31.4875 55.0596 31.4785C55.0653 31.4725 55.0739 31.4636 55.0796 31.4576C55.2052 31.3261 55.2887 31.143 55.2833 30.9094ZM50.72 30.2074C50.6975 29.226 50.6751 28.2504 50.6526 27.269C51.6341 27.2465 52.6096 27.2242 53.591 27.2017C53.6135 28.1831 53.6359 29.1586 53.6584 30.14C52.677 30.1625 51.7014 30.1849 50.72 30.2074Z" fill="url(#paint72_linear_1_20)"/>
<path d="M78.5197 53.1066C78.485 51.5936 78.4502 50.0748 78.4155 48.5618C78.4056 48.1295 78.0262 47.7671 77.5939 47.777C76.0809 47.8117 74.5621 47.8465 73.0491 47.8812C72.6168 47.8911 72.2543 48.2705 72.2642 48.7028C72.2989 50.2158 72.3337 51.7347 72.3684 53.2477C72.3783 53.68 72.7577 54.0424 73.19 54.0325C74.703 53.9978 76.2219 53.963 77.7349 53.9283C77.9685 53.9229 78.1476 53.8311 78.2732 53.6997C78.2818 53.6907 78.2875 53.6847 78.296 53.6758C78.3017 53.6698 78.3103 53.6608 78.316 53.6549C78.4416 53.5234 78.5251 53.3403 78.5197 53.1066ZM73.9564 52.4047C73.9339 51.4233 73.9115 50.4477 73.889 49.4663C74.8704 49.4438 75.846 49.4214 76.8274 49.3989C76.8499 50.3803 76.8723 51.3559 76.8948 52.3373C75.9163 52.3627 74.9378 52.3822 73.9564 52.4047Z" fill="url(#paint73_linear_1_20)"/>
<path d="M101.76 75.3039C101.725 73.7909 101.69 72.2721 101.656 70.759C101.646 70.3268 101.266 69.9643 100.834 69.9742C99.3211 70.0089 97.8023 70.0437 96.2893 70.0784C95.857 70.0883 95.4946 70.4678 95.5045 70.9001C95.5391 72.4131 95.5739 73.9319 95.6086 75.4449C95.6185 75.8772 95.998 76.2397 96.4302 76.2298C97.9432 76.1951 99.4621 76.1602 100.975 76.1255C101.209 76.1202 101.388 76.0284 101.513 75.8969C101.522 75.888 101.528 75.882 101.536 75.873C101.542 75.8671 101.551 75.8581 101.556 75.8521C101.682 75.7207 101.765 75.5376 101.76 75.3039ZM97.1966 74.6019C97.1741 73.6205 97.1518 72.645 97.1293 71.6636C98.1107 71.6411 99.0862 71.6187 100.068 71.5962C100.09 72.5776 100.112 73.5532 100.135 74.5346C99.1566 74.5599 98.178 74.5794 97.1966 74.6019Z" fill="url(#paint74_linear_1_20)"/>
<path d="M125 97.5012C124.965 95.9882 124.931 94.4693 124.896 92.9563C124.886 92.524 124.507 92.1616 124.074 92.1715C122.561 92.2062 121.043 92.241 119.53 92.2757C119.097 92.2856 118.735 92.6651 118.745 93.0973C118.779 94.6103 118.814 96.1292 118.849 97.6422C118.859 98.0745 119.238 98.4369 119.67 98.427C121.183 98.3923 122.702 98.3575 124.215 98.3228C124.449 98.3174 124.628 98.2257 124.754 98.0942C124.762 98.0852 124.768 98.0793 124.776 98.0703C124.782 98.0643 124.791 98.0554 124.796 98.0494C124.922 97.9179 125.006 97.7348 125 97.5012ZM120.44 96.8021C120.417 95.8207 120.395 94.8451 120.372 93.8637C121.354 93.8412 122.329 93.8188 123.311 93.7963C123.333 94.7777 123.356 95.7533 123.378 96.7347C122.397 96.7572 121.418 96.7767 120.44 96.8021Z" fill="url(#paint75_linear_1_20)"/>
</g>
<defs>
<linearGradient id="paint0_linear_1_20" x1="269.915" y1="-291.478" x2="286.414" y2="249.642" gradientUnits="userSpaceOnUse">
<stop stop-color="#BE965D"/>
<stop offset="0.2784" stop-color="#976F40"/>
<stop offset="0.4259" stop-color="#C99B61"/>
<stop offset="0.5584" stop-color="#F0BE7B"/>
<stop offset="0.6275" stop-color="#FFCB85"/>
<stop offset="0.7085" stop-color="#EEBC79"/>
<stop offset="0.8693" stop-color="#C0935B"/>
<stop offset="1" stop-color="#976F40"/>
</linearGradient>
<linearGradient id="paint1_linear_1_20" x1="247.202" y1="-290.784" x2="263.701" y2="250.335" gradientUnits="userSpaceOnUse">
<stop stop-color="#BE965D"/>
<stop offset="0.2784" stop-color="#976F40"/>
<stop offset="0.4259" stop-color="#C99B61"/>
<stop offset="0.5584" stop-color="#F0BE7B"/>
<stop offset="0.6275" stop-color="#FFCB85"/>
<stop offset="0.7085" stop-color="#EEBC79"/>
<stop offset="0.8693" stop-color="#C0935B"/>
<stop offset="1" stop-color="#976F40"/>
</linearGradient>
<linearGradient id="paint2_linear_1_20" x1="269.742" y1="-291.471" x2="286.241" y2="249.648" gradientUnits="userSpaceOnUse">
<stop stop-color="#BE965D"/>
<stop offset="0.2784" stop-color="#976F40"/>
<stop offset="0.4259" stop-color="#C99B61"/>
<stop offset="0.5584" stop-color="#F0BE7B"/>
<stop offset="0.6275" stop-color="#FFCB85"/>
<stop offset="0.7085" stop-color="#EEBC79"/>
<stop offset="0.8693" stop-color="#C0935B"/>
<stop offset="1" stop-color="#976F40"/>
</linearGradient>
<linearGradient id="paint3_linear_1_20" x1="224.487" y1="-290.093" x2="240.986" y2="251.027" gradientUnits="userSpaceOnUse">
<stop stop-color="#BE965D"/>
<stop offset="0.2784" stop-color="#976F40"/>
<stop offset="0.4259" stop-color="#C99B61"/>
<stop offset="0.5584" stop-color="#F0BE7B"/>
<stop offset="0.6275" stop-color="#FFCB85"/>
<stop offset="0.7085" stop-color="#EEBC79"/>
<stop offset="0.8693" stop-color="#C0935B"/>
<stop offset="1" stop-color="#976F40"/>
</linearGradient>
<linearGradient id="paint4_linear_1_20" x1="247.03" y1="-290.78" x2="263.529" y2="250.34" gradientUnits="userSpaceOnUse">
<stop stop-color="#BE965D"/>
<stop offset="0.2784" stop-color="#976F40"/>
<stop offset="0.4259" stop-color="#C99B61"/>
<stop offset="0.5584" stop-color="#F0BE7B"/>
<stop offset="0.6275" stop-color="#FFCB85"/>
<stop offset="0.7085" stop-color="#EEBC79"/>
<stop offset="0.8693" stop-color="#C0935B"/>
<stop offset="1" stop-color="#976F40"/>
</linearGradient>
<linearGradient id="paint5_linear_1_20" x1="269.568" y1="-291.468" x2="286.066" y2="249.652" gradientUnits="userSpaceOnUse">
<stop stop-color="#BE965D"/>
<stop offset="0.2784" stop-color="#976F40"/>
<stop offset="0.4259" stop-color="#C99B61"/>
<stop offset="0.5584" stop-color="#F0BE7B"/>
<stop offset="0.6275" stop-color="#FFCB85"/>
<stop offset="0.7085" stop-color="#EEBC79"/>
<stop offset="0.8693" stop-color="#C0935B"/>
<stop offset="1" stop-color="#976F40"/>
</linearGradient>
<linearGradient id="paint6_linear_1_20" x1="224.316" y1="-290.087" x2="240.815" y2="251.033" gradientUnits="userSpaceOnUse">
<stop stop-color="#BE965D"/>
<stop offset="0.2784" stop-color="#976F40"/>
<stop offset="0.4259" stop-color="#C99B61"/>
<stop offset="0.5584" stop-color="#F0BE7B"/>
<stop offset="0.6275" stop-color="#FFCB85"/>
<stop offset="0.7085" stop-color="#EEBC79"/>
<stop offset="0.8693" stop-color="#C0935B"/>
<stop offset="1" stop-color="#976F40"/>
</linearGradient>
<linearGradient id="paint7_linear_1_20" x1="246.858" y1="-290.774" x2="263.357" y2="250.345" gradientUnits="userSpaceOnUse">
<stop stop-color="#BE965D"/>
<stop offset="0.2784" stop-color="#976F40"/>
<stop offset="0.4259" stop-color="#C99B61"/>
<stop offset="0.5584" stop-color="#F0BE7B"/>
<stop offset="0.6275" stop-color="#FFCB85"/>
<stop offset="0.7085" stop-color="#EEBC79"/>
<stop offset="0.8693" stop-color="#C0935B"/>
<stop offset="1" stop-color="#976F40"/>
</linearGradient>
<linearGradient id="paint8_linear_1_20" x1="269.398" y1="-291.462" x2="285.897" y2="249.657" gradientUnits="userSpaceOnUse">
<stop stop-color="#BE965D"/>
<stop offset="0.2784" stop-color="#976F40"/>
<stop offset="0.4259" stop-color="#C99B61"/>
<stop offset="0.5584" stop-color="#F0BE7B"/>
<stop offset="0.6275" stop-color="#FFCB85"/>
<stop offset="0.7085" stop-color="#EEBC79"/>
<stop offset="0.8693" stop-color="#C0935B"/>
<stop offset="1" stop-color="#976F40"/>
</linearGradient>
<linearGradient id="paint9_linear_1_20" x1="201.6" y1="-289.394" x2="218.099" y2="251.725" gradientUnits="userSpaceOnUse">
<stop stop-color="#BE965D"/>
<stop offset="0.2784" stop-color="#976F40"/>
<stop offset="0.4259" stop-color="#C99B61"/>
<stop offset="0.5584" stop-color="#F0BE7B"/>
<stop offset="0.6275" stop-color="#FFCB85"/>
<stop offset="0.7085" stop-color="#EEBC79"/>
<stop offset="0.8693" stop-color="#C0935B"/>
<stop offset="1" stop-color="#976F40"/>
</linearGradient>
<linearGradient id="paint10_linear_1_20" x1="224.143" y1="-290.084" x2="240.642" y2="251.036" gradientUnits="userSpaceOnUse">
<stop stop-color="#BE965D"/>
<stop offset="0.2784" stop-color="#976F40"/>
<stop offset="0.4259" stop-color="#C99B61"/>
<stop offset="0.5584" stop-color="#F0BE7B"/>
<stop offset="0.6275" stop-color="#FFCB85"/>
<stop offset="0.7085" stop-color="#EEBC79"/>
<stop offset="0.8693" stop-color="#C0935B"/>
<stop offset="1" stop-color="#976F40"/>
</linearGradient>
<linearGradient id="paint11_linear_1_20" x1="246.686" y1="-290.77" x2="263.184" y2="250.351" gradientUnits="userSpaceOnUse">
<stop stop-color="#BE965D"/>
<stop offset="0.2784" stop-color="#976F40"/>
<stop offset="0.4259" stop-color="#C99B61"/>
<stop offset="0.5584" stop-color="#F0BE7B"/>
<stop offset="0.6275" stop-color="#FFCB85"/>
<stop offset="0.7085" stop-color="#EEBC79"/>
<stop offset="0.8693" stop-color="#C0935B"/>
<stop offset="1" stop-color="#976F40"/>
</linearGradient>
<linearGradient id="paint12_linear_1_20" x1="269.227" y1="-291.457" x2="285.726" y2="249.663" gradientUnits="userSpaceOnUse">
<stop stop-color="#BE965D"/>
<stop offset="0.2784" stop-color="#976F40"/>
<stop offset="0.4259" stop-color="#C99B61"/>
<stop offset="0.5584" stop-color="#F0BE7B"/>
<stop offset="0.6275" stop-color="#FFCB85"/>
<stop offset="0.7085" stop-color="#EEBC79"/>
<stop offset="0.8693" stop-color="#C0935B"/>
<stop offset="1" stop-color="#976F40"/>
</linearGradient>
<linearGradient id="paint13_linear_1_20" x1="201.431" y1="-289.388" x2="217.93" y2="251.731" gradientUnits="userSpaceOnUse">
<stop stop-color="#BE965D"/>
<stop offset="0.2784" stop-color="#976F40"/>
<stop offset="0.4259" stop-color="#C99B61"/>
<stop offset="0.5584" stop-color="#F0BE7B"/>
<stop offset="0.6275" stop-color="#FFCB85"/>
<stop offset="0.7085" stop-color="#EEBC79"/>
<stop offset="0.8693" stop-color="#C0935B"/>
<stop offset="1" stop-color="#976F40"/>
</linearGradient>
<linearGradient id="paint14_linear_1_20" x1="223.972" y1="-290.076" x2="240.471" y2="251.043" gradientUnits="userSpaceOnUse">
<stop stop-color="#BE965D"/>
<stop offset="0.2784" stop-color="#976F40"/>
<stop offset="0.4259" stop-color="#C99B61"/>
<stop offset="0.5584" stop-color="#F0BE7B"/>
<stop offset="0.6275" stop-color="#FFCB85"/>
<stop offset="0.7085" stop-color="#EEBC79"/>
<stop offset="0.8693" stop-color="#C0935B"/>
<stop offset="1" stop-color="#976F40"/>
</linearGradient>
<linearGradient id="paint15_linear_1_20" x1="246.515" y1="-290.763" x2="263.014" y2="250.356" gradientUnits="userSpaceOnUse">
<stop stop-color="#BE965D"/>
<stop offset="0.2784" stop-color="#976F40"/>
<stop offset="0.4259" stop-color="#C99B61"/>
<stop offset="0.5584" stop-color="#F0BE7B"/>
<stop offset="0.6275" stop-color="#FFCB85"/>
<stop offset="0.7085" stop-color="#EEBC79"/>
<stop offset="0.8693" stop-color="#C0935B"/>
<stop offset="1" stop-color="#976F40"/>
</linearGradient>
<linearGradient id="paint16_linear_1_20" x1="269.056" y1="-291.451" x2="285.555" y2="249.669" gradientUnits="userSpaceOnUse">
<stop stop-color="#BE965D"/>
<stop offset="0.2784" stop-color="#976F40"/>
<stop offset="0.4259" stop-color="#C99B61"/>
<stop offset="0.5584" stop-color="#F0BE7B"/>
<stop offset="0.6275" stop-color="#FFCB85"/>
<stop offset="0.7085" stop-color="#EEBC79"/>
<stop offset="0.8693" stop-color="#C0935B"/>
<stop offset="1" stop-color="#976F40"/>
</linearGradient>
<linearGradient id="paint17_linear_1_20" x1="178.718" y1="-288.698" x2="195.217" y2="252.422" gradientUnits="userSpaceOnUse">
<stop stop-color="#BE965D"/>
<stop offset="0.2784" stop-color="#976F40"/>
<stop offset="0.4259" stop-color="#C99B61"/>
<stop offset="0.5584" stop-color="#F0BE7B"/>
<stop offset="0.6275" stop-color="#FFCB85"/>
<stop offset="0.7085" stop-color="#EEBC79"/>
<stop offset="0.8693" stop-color="#C0935B"/>
<stop offset="1" stop-color="#976F40"/>
</linearGradient>
<linearGradient id="paint18_linear_1_20" x1="201.257" y1="-289.385" x2="217.756" y2="251.735" gradientUnits="userSpaceOnUse">
<stop stop-color="#BE965D"/>
<stop offset="0.2784" stop-color="#976F40"/>
<stop offset="0.4259" stop-color="#C99B61"/>
<stop offset="0.5584" stop-color="#F0BE7B"/>
<stop offset="0.6275" stop-color="#FFCB85"/>
<stop offset="0.7085" stop-color="#EEBC79"/>
<stop offset="0.8693" stop-color="#C0935B"/>
<stop offset="1" stop-color="#976F40"/>
</linearGradient>
<linearGradient id="paint19_linear_1_20" x1="223.799" y1="-290.073" x2="240.297" y2="251.047" gradientUnits="userSpaceOnUse">
<stop stop-color="#BE965D"/>
<stop offset="0.2784" stop-color="#976F40"/>
<stop offset="0.4259" stop-color="#C99B61"/>
<stop offset="0.5584" stop-color="#F0BE7B"/>
<stop offset="0.6275" stop-color="#FFCB85"/>
<stop offset="0.7085" stop-color="#EEBC79"/>
<stop offset="0.8693" stop-color="#C0935B"/>
<stop offset="1" stop-color="#976F40"/>
</linearGradient>
<linearGradient id="paint20_linear_1_20" x1="246.343" y1="-290.76" x2="262.842" y2="250.36" gradientUnits="userSpaceOnUse">
<stop stop-color="#BE965D"/>
<stop offset="0.2784" stop-color="#976F40"/>
<stop offset="0.4259" stop-color="#C99B61"/>
<stop offset="0.5584" stop-color="#F0BE7B"/>
<stop offset="0.6275" stop-color="#FFCB85"/>
<stop offset="0.7085" stop-color="#EEBC79"/>
<stop offset="0.8693" stop-color="#C0935B"/>
<stop offset="1" stop-color="#976F40"/>
</linearGradient>
<linearGradient id="paint21_linear_1_20" x1="268.883" y1="-291.448" x2="285.381" y2="249.673" gradientUnits="userSpaceOnUse">
<stop stop-color="#BE965D"/>
<stop offset="0.2784" stop-color="#976F40"/>
<stop offset="0.4259" stop-color="#C99B61"/>
<stop offset="0.5584" stop-color="#F0BE7B"/>
<stop offset="0.6275" stop-color="#FFCB85"/>
<stop offset="0.7085" stop-color="#EEBC79"/>
<stop offset="0.8693" stop-color="#C0935B"/>
<stop offset="1" stop-color="#976F40"/>
</linearGradient>
<linearGradient id="paint22_linear_1_20" x1="178.709" y1="-289.035" x2="195.208" y2="252.084" gradientUnits="userSpaceOnUse">
<stop stop-color="#BE965D"/>
<stop offset="0.2784" stop-color="#976F40"/>
<stop offset="0.4259" stop-color="#C99B61"/>
<stop offset="0.5584" stop-color="#F0BE7B"/>
<stop offset="0.6275" stop-color="#FFCB85"/>
<stop offset="0.7085" stop-color="#EEBC79"/>
<stop offset="0.8693" stop-color="#C0935B"/>
<stop offset="1" stop-color="#976F40"/>
</linearGradient>
<linearGradient id="paint23_linear_1_20" x1="201.085" y1="-289.379" x2="217.584" y2="251.741" gradientUnits="userSpaceOnUse">
<stop stop-color="#BE965D"/>
<stop offset="0.2784" stop-color="#976F40"/>
<stop offset="0.4259" stop-color="#C99B61"/>
<stop offset="0.5584" stop-color="#F0BE7B"/>
<stop offset="0.6275" stop-color="#FFCB85"/>
<stop offset="0.7085" stop-color="#EEBC79"/>
<stop offset="0.8693" stop-color="#C0935B"/>
<stop offset="1" stop-color="#976F40"/>
</linearGradient>
<linearGradient id="paint24_linear_1_20" x1="223.629" y1="-290.066" x2="240.128" y2="251.053" gradientUnits="userSpaceOnUse">
<stop stop-color="#BE965D"/>
<stop offset="0.2784" stop-color="#976F40"/>
<stop offset="0.4259" stop-color="#C99B61"/>
<stop offset="0.5584" stop-color="#F0BE7B"/>
<stop offset="0.6275" stop-color="#FFCB85"/>
<stop offset="0.7085" stop-color="#EEBC79"/>
<stop offset="0.8693" stop-color="#C0935B"/>
<stop offset="1" stop-color="#976F40"/>
</linearGradient>
<linearGradient id="paint25_linear_1_20" x1="246.172" y1="-290.754" x2="262.671" y2="250.365" gradientUnits="userSpaceOnUse">
<stop stop-color="#BE965D"/>
<stop offset="0.2784" stop-color="#976F40"/>
<stop offset="0.4259" stop-color="#C99B61"/>
<stop offset="0.5584" stop-color="#F0BE7B"/>
<stop offset="0.6275" stop-color="#FFCB85"/>
<stop offset="0.7085" stop-color="#EEBC79"/>
<stop offset="0.8693" stop-color="#C0935B"/>
<stop offset="1" stop-color="#976F40"/>
</linearGradient>
<linearGradient id="paint26_linear_1_20" x1="268.713" y1="-291.44" x2="285.212" y2="249.679" gradientUnits="userSpaceOnUse">
<stop stop-color="#BE965D"/>
<stop offset="0.2784" stop-color="#976F40"/>
<stop offset="0.4259" stop-color="#C99B61"/>
<stop offset="0.5584" stop-color="#F0BE7B"/>
<stop offset="0.6275" stop-color="#FFCB85"/>
<stop offset="0.7085" stop-color="#EEBC79"/>
<stop offset="0.8693" stop-color="#C0935B"/>
<stop offset="1" stop-color="#976F40"/>
</linearGradient>
<linearGradient id="paint27_linear_1_20" x1="155.832" y1="-288" x2="172.331" y2="253.12" gradientUnits="userSpaceOnUse">
<stop stop-color="#BE965D"/>
<stop offset="0.2784" stop-color="#976F40"/>
<stop offset="0.4259" stop-color="#C99B61"/>
<stop offset="0.5584" stop-color="#F0BE7B"/>
<stop offset="0.6275" stop-color="#FFCB85"/>
<stop offset="0.7085" stop-color="#EEBC79"/>
<stop offset="0.8693" stop-color="#C0935B"/>
<stop offset="1" stop-color="#976F40"/>
</linearGradient>
<linearGradient id="paint28_linear_1_20" x1="178.375" y1="-288.687" x2="194.874" y2="252.433" gradientUnits="userSpaceOnUse">
<stop stop-color="#BE965D"/>
<stop offset="0.2784" stop-color="#976F40"/>
<stop offset="0.4259" stop-color="#C99B61"/>
<stop offset="0.5584" stop-color="#F0BE7B"/>
<stop offset="0.6275" stop-color="#FFCB85"/>
<stop offset="0.7085" stop-color="#EEBC79"/>
<stop offset="0.8693" stop-color="#C0935B"/>
<stop offset="1" stop-color="#976F40"/>
</linearGradient>
<linearGradient id="paint29_linear_1_20" x1="200.913" y1="-289.375" x2="217.412" y2="251.746" gradientUnits="userSpaceOnUse">
<stop stop-color="#BE965D"/>
<stop offset="0.2784" stop-color="#976F40"/>
<stop offset="0.4259" stop-color="#C99B61"/>
<stop offset="0.5584" stop-color="#F0BE7B"/>
<stop offset="0.6275" stop-color="#FFCB85"/>
<stop offset="0.7085" stop-color="#EEBC79"/>
<stop offset="0.8693" stop-color="#C0935B"/>
<stop offset="1" stop-color="#976F40"/>
</linearGradient>
<linearGradient id="paint30_linear_1_20" x1="223.457" y1="-290.06" x2="239.956" y2="251.06" gradientUnits="userSpaceOnUse">
<stop stop-color="#BE965D"/>
<stop offset="0.2784" stop-color="#976F40"/>
<stop offset="0.4259" stop-color="#C99B61"/>
<stop offset="0.5584" stop-color="#F0BE7B"/>
<stop offset="0.6275" stop-color="#FFCB85"/>
<stop offset="0.7085" stop-color="#EEBC79"/>
<stop offset="0.8693" stop-color="#C0935B"/>
<stop offset="1" stop-color="#976F40"/>
</linearGradient>
<linearGradient id="paint31_linear_1_20" x1="245.997" y1="-290.75" x2="262.495" y2="250.37" gradientUnits="userSpaceOnUse">
<stop stop-color="#BE965D"/>
<stop offset="0.2784" stop-color="#976F40"/>
<stop offset="0.4259" stop-color="#C99B61"/>
<stop offset="0.5584" stop-color="#F0BE7B"/>
<stop offset="0.6275" stop-color="#FFCB85"/>
<stop offset="0.7085" stop-color="#EEBC79"/>
<stop offset="0.8693" stop-color="#C0935B"/>
<stop offset="1" stop-color="#976F40"/>
</linearGradient>
<linearGradient id="paint32_linear_1_20" x1="268.539" y1="-291.437" x2="285.038" y2="249.683" gradientUnits="userSpaceOnUse">
<stop stop-color="#BE965D"/>
<stop offset="0.2784" stop-color="#976F40"/>
<stop offset="0.4259" stop-color="#C99B61"/>
<stop offset="0.5584" stop-color="#F0BE7B"/>
<stop offset="0.6275" stop-color="#FFCB85"/>
<stop offset="0.7085" stop-color="#EEBC79"/>
<stop offset="0.8693" stop-color="#C0935B"/>
<stop offset="1" stop-color="#976F40"/>
</linearGradient>
<linearGradient id="paint33_linear_1_20" x1="155.661" y1="-287.994" x2="172.16" y2="253.126" gradientUnits="userSpaceOnUse">
<stop stop-color="#BE965D"/>
<stop offset="0.2784" stop-color="#976F40"/>
<stop offset="0.4259" stop-color="#C99B61"/>
<stop offset="0.5584" stop-color="#F0BE7B"/>
<stop offset="0.6275" stop-color="#FFCB85"/>
<stop offset="0.7085" stop-color="#EEBC79"/>
<stop offset="0.8693" stop-color="#C0935B"/>
<stop offset="1" stop-color="#976F40"/>
</linearGradient>
<linearGradient id="paint34_linear_1_20" x1="178.202" y1="-288.682" x2="194.701" y2="252.439" gradientUnits="userSpaceOnUse">
<stop stop-color="#BE965D"/>
<stop offset="0.2784" stop-color="#976F40"/>
<stop offset="0.4259" stop-color="#C99B61"/>
<stop offset="0.5584" stop-color="#F0BE7B"/>
<stop offset="0.6275" stop-color="#FFCB85"/>
<stop offset="0.7085" stop-color="#EEBC79"/>
<stop offset="0.8693" stop-color="#C0935B"/>
<stop offset="1" stop-color="#976F40"/>
</linearGradient>
<linearGradient id="paint35_linear_1_20" x1="200.743" y1="-289.369" x2="217.242" y2="251.751" gradientUnits="userSpaceOnUse">
<stop stop-color="#BE965D"/>
<stop offset="0.2784" stop-color="#976F40"/>
<stop offset="0.4259" stop-color="#C99B61"/>
<stop offset="0.5584" stop-color="#F0BE7B"/>
<stop offset="0.6275" stop-color="#FFCB85"/>
<stop offset="0.7085" stop-color="#EEBC79"/>
<stop offset="0.8693" stop-color="#C0935B"/>
<stop offset="1" stop-color="#976F40"/>
</linearGradient>
<linearGradient id="paint36_linear_1_20" x1="223.286" y1="-290.055" x2="239.785" y2="251.065" gradientUnits="userSpaceOnUse">
<stop stop-color="#BE965D"/>
<stop offset="0.2784" stop-color="#976F40"/>
<stop offset="0.4259" stop-color="#C99B61"/>
<stop offset="0.5584" stop-color="#F0BE7B"/>
<stop offset="0.6275" stop-color="#FFCB85"/>
<stop offset="0.7085" stop-color="#EEBC79"/>
<stop offset="0.8693" stop-color="#C0935B"/>
<stop offset="1" stop-color="#976F40"/>
</linearGradient>
<linearGradient id="paint37_linear_1_20" x1="245.827" y1="-290.743" x2="262.326" y2="250.378" gradientUnits="userSpaceOnUse">
<stop stop-color="#BE965D"/>
<stop offset="0.2784" stop-color="#976F40"/>
<stop offset="0.4259" stop-color="#C99B61"/>
<stop offset="0.5584" stop-color="#F0BE7B"/>
<stop offset="0.6275" stop-color="#FFCB85"/>
<stop offset="0.7085" stop-color="#EEBC79"/>
<stop offset="0.8693" stop-color="#C0935B"/>
<stop offset="1" stop-color="#976F40"/>
</linearGradient>
<linearGradient id="paint38_linear_1_20" x1="268.368" y1="-291.432" x2="284.867" y2="249.689" gradientUnits="userSpaceOnUse">
<stop stop-color="#BE965D"/>
<stop offset="0.2784" stop-color="#976F40"/>
<stop offset="0.4259" stop-color="#C99B61"/>
<stop offset="0.5584" stop-color="#F0BE7B"/>
<stop offset="0.6275" stop-color="#FFCB85"/>
<stop offset="0.7085" stop-color="#EEBC79"/>
<stop offset="0.8693" stop-color="#C0935B"/>
<stop offset="1" stop-color="#976F40"/>
</linearGradient>
<linearGradient id="paint39_linear_1_20" x1="132.945" y1="-287.302" x2="149.444" y2="253.819" gradientUnits="userSpaceOnUse">
<stop stop-color="#BE965D"/>
<stop offset="0.2784" stop-color="#976F40"/>
<stop offset="0.4259" stop-color="#C99B61"/>
<stop offset="0.5584" stop-color="#F0BE7B"/>
<stop offset="0.6275" stop-color="#FFCB85"/>
<stop offset="0.7085" stop-color="#EEBC79"/>
<stop offset="0.8693" stop-color="#C0935B"/>
<stop offset="1" stop-color="#976F40"/>
</linearGradient>
<linearGradient id="paint40_linear_1_20" x1="155.488" y1="-287.989" x2="171.987" y2="253.131" gradientUnits="userSpaceOnUse">
<stop stop-color="#BE965D"/>
<stop offset="0.2784" stop-color="#976F40"/>
<stop offset="0.4259" stop-color="#C99B61"/>
<stop offset="0.5584" stop-color="#F0BE7B"/>
<stop offset="0.6275" stop-color="#FFCB85"/>
<stop offset="0.7085" stop-color="#EEBC79"/>
<stop offset="0.8693" stop-color="#C0935B"/>
<stop offset="1" stop-color="#976F40"/>
</linearGradient>
<linearGradient id="paint41_linear_1_20" x1="178.031" y1="-288.678" x2="194.529" y2="252.444" gradientUnits="userSpaceOnUse">
<stop stop-color="#BE965D"/>
<stop offset="0.2784" stop-color="#976F40"/>
<stop offset="0.4259" stop-color="#C99B61"/>
<stop offset="0.5584" stop-color="#F0BE7B"/>
<stop offset="0.6275" stop-color="#FFCB85"/>
<stop offset="0.7085" stop-color="#EEBC79"/>
<stop offset="0.8693" stop-color="#C0935B"/>
<stop offset="1" stop-color="#976F40"/>
</linearGradient>
<linearGradient id="paint42_linear_1_20" x1="200.572" y1="-289.364" x2="217.071" y2="251.757" gradientUnits="userSpaceOnUse">
<stop stop-color="#BE965D"/>
<stop offset="0.2784" stop-color="#976F40"/>
<stop offset="0.4259" stop-color="#C99B61"/>
<stop offset="0.5584" stop-color="#F0BE7B"/>
<stop offset="0.6275" stop-color="#FFCB85"/>
<stop offset="0.7085" stop-color="#EEBC79"/>
<stop offset="0.8693" stop-color="#C0935B"/>
<stop offset="1" stop-color="#976F40"/>
</linearGradient>
<linearGradient id="paint43_linear_1_20" x1="223.113" y1="-290.052" x2="239.611" y2="251.069" gradientUnits="userSpaceOnUse">
<stop stop-color="#BE965D"/>
<stop offset="0.2784" stop-color="#976F40"/>
<stop offset="0.4259" stop-color="#C99B61"/>
<stop offset="0.5584" stop-color="#F0BE7B"/>
<stop offset="0.6275" stop-color="#FFCB85"/>
<stop offset="0.7085" stop-color="#EEBC79"/>
<stop offset="0.8693" stop-color="#C0935B"/>
<stop offset="1" stop-color="#976F40"/>
</linearGradient>
<linearGradient id="paint44_linear_1_20" x1="245.654" y1="-290.739" x2="262.153" y2="250.381" gradientUnits="userSpaceOnUse">
<stop stop-color="#BE965D"/>
<stop offset="0.2784" stop-color="#976F40"/>
<stop offset="0.4259" stop-color="#C99B61"/>
<stop offset="0.5584" stop-color="#F0BE7B"/>
<stop offset="0.6275" stop-color="#FFCB85"/>
<stop offset="0.7085" stop-color="#EEBC79"/>
<stop offset="0.8693" stop-color="#C0935B"/>
<stop offset="1" stop-color="#976F40"/>
</linearGradient>
<linearGradient id="paint45_linear_1_20" x1="132.774" y1="-287.295" x2="149.273" y2="253.825" gradientUnits="userSpaceOnUse">
<stop stop-color="#BE965D"/>
<stop offset="0.2784" stop-color="#976F40"/>
<stop offset="0.4259" stop-color="#C99B61"/>
<stop offset="0.5584" stop-color="#F0BE7B"/>
<stop offset="0.6275" stop-color="#FFCB85"/>
<stop offset="0.7085" stop-color="#EEBC79"/>
<stop offset="0.8693" stop-color="#C0935B"/>
<stop offset="1" stop-color="#976F40"/>
</linearGradient>
<linearGradient id="paint46_linear_1_20" x1="155.318" y1="-287.983" x2="171.816" y2="253.137" gradientUnits="userSpaceOnUse">
<stop stop-color="#BE965D"/>
<stop offset="0.2784" stop-color="#976F40"/>
<stop offset="0.4259" stop-color="#C99B61"/>
<stop offset="0.5584" stop-color="#F0BE7B"/>
<stop offset="0.6275" stop-color="#FFCB85"/>
<stop offset="0.7085" stop-color="#EEBC79"/>
<stop offset="0.8693" stop-color="#C0935B"/>
<stop offset="1" stop-color="#976F40"/>
</linearGradient>
<linearGradient id="paint47_linear_1_20" x1="177.861" y1="-288.671" x2="194.359" y2="252.45" gradientUnits="userSpaceOnUse">
<stop stop-color="#BE965D"/>
<stop offset="0.2784" stop-color="#976F40"/>
<stop offset="0.4259" stop-color="#C99B61"/>
<stop offset="0.5584" stop-color="#F0BE7B"/>
<stop offset="0.6275" stop-color="#FFCB85"/>
<stop offset="0.7085" stop-color="#EEBC79"/>
<stop offset="0.8693" stop-color="#C0935B"/>
<stop offset="1" stop-color="#976F40"/>
</linearGradient>
<linearGradient id="paint48_linear_1_20" x1="200.4" y1="-289.358" x2="216.899" y2="251.763" gradientUnits="userSpaceOnUse">
<stop stop-color="#BE965D"/>
<stop offset="0.2784" stop-color="#976F40"/>
<stop offset="0.4259" stop-color="#C99B61"/>
<stop offset="0.5584" stop-color="#F0BE7B"/>
<stop offset="0.6275" stop-color="#FFCB85"/>
<stop offset="0.7085" stop-color="#EEBC79"/>
<stop offset="0.8693" stop-color="#C0935B"/>
<stop offset="1" stop-color="#976F40"/>
</linearGradient>
<linearGradient id="paint49_linear_1_20" x1="222.943" y1="-290.046" x2="239.442" y2="251.075" gradientUnits="userSpaceOnUse">
<stop stop-color="#BE965D"/>
<stop offset="0.2784" stop-color="#976F40"/>
<stop offset="0.4259" stop-color="#C99B61"/>
<stop offset="0.5584" stop-color="#F0BE7B"/>
<stop offset="0.6275" stop-color="#FFCB85"/>
<stop offset="0.7085" stop-color="#EEBC79"/>
<stop offset="0.8693" stop-color="#C0935B"/>
<stop offset="1" stop-color="#976F40"/>
</linearGradient>
<linearGradient id="paint50_linear_1_20" x1="245.483" y1="-290.734" x2="261.982" y2="250.387" gradientUnits="userSpaceOnUse">
<stop stop-color="#BE965D"/>
<stop offset="0.2784" stop-color="#976F40"/>
<stop offset="0.4259" stop-color="#C99B61"/>
<stop offset="0.5584" stop-color="#F0BE7B"/>
<stop offset="0.6275" stop-color="#FFCB85"/>
<stop offset="0.7085" stop-color="#EEBC79"/>
<stop offset="0.8693" stop-color="#C0935B"/>
<stop offset="1" stop-color="#976F40"/>
</linearGradient>
<linearGradient id="paint51_linear_1_20" x1="201.775" y1="-289.399" x2="218.274" y2="251.72" gradientUnits="userSpaceOnUse">
<stop stop-color="#BE965D"/>
<stop offset="0.2784" stop-color="#976F40"/>
<stop offset="0.4259" stop-color="#C99B61"/>
<stop offset="0.5584" stop-color="#F0BE7B"/>
<stop offset="0.6275" stop-color="#FFCB85"/>
<stop offset="0.7085" stop-color="#EEBC79"/>
<stop offset="0.8693" stop-color="#C0935B"/>
<stop offset="1" stop-color="#976F40"/>
</linearGradient>
<linearGradient id="paint52_linear_1_20" x1="179.061" y1="-288.706" x2="195.56" y2="252.413" gradientUnits="userSpaceOnUse">
<stop stop-color="#BE965D"/>
<stop offset="0.2784" stop-color="#976F40"/>
<stop offset="0.4259" stop-color="#C99B61"/>
<stop offset="0.5584" stop-color="#F0BE7B"/>
<stop offset="0.6275" stop-color="#FFCB85"/>
<stop offset="0.7085" stop-color="#EEBC79"/>
<stop offset="0.8693" stop-color="#C0935B"/>
<stop offset="1" stop-color="#976F40"/>
</linearGradient>
<linearGradient id="paint53_linear_1_20" x1="156.345" y1="-288.015" x2="172.844" y2="253.104" gradientUnits="userSpaceOnUse">
<stop stop-color="#BE965D"/>
<stop offset="0.2784" stop-color="#976F40"/>
<stop offset="0.4259" stop-color="#C99B61"/>
<stop offset="0.5584" stop-color="#F0BE7B"/>
<stop offset="0.6275" stop-color="#FFCB85"/>
<stop offset="0.7085" stop-color="#EEBC79"/>
<stop offset="0.8693" stop-color="#C0935B"/>
<stop offset="1" stop-color="#976F40"/>
</linearGradient>
<linearGradient id="paint54_linear_1_20" x1="178.888" y1="-288.703" x2="195.387" y2="252.417" gradientUnits="userSpaceOnUse">
<stop stop-color="#BE965D"/>
<stop offset="0.2784" stop-color="#976F40"/>
<stop offset="0.4259" stop-color="#C99B61"/>
<stop offset="0.5584" stop-color="#F0BE7B"/>
<stop offset="0.6275" stop-color="#FFCB85"/>
<stop offset="0.7085" stop-color="#EEBC79"/>
<stop offset="0.8693" stop-color="#C0935B"/>
<stop offset="1" stop-color="#976F40"/>
</linearGradient>
<linearGradient id="paint55_linear_1_20" x1="133.633" y1="-287.322" x2="150.132" y2="253.798" gradientUnits="userSpaceOnUse">
<stop stop-color="#BE965D"/>
<stop offset="0.2784" stop-color="#976F40"/>
<stop offset="0.4259" stop-color="#C99B61"/>
<stop offset="0.5584" stop-color="#F0BE7B"/>
<stop offset="0.6275" stop-color="#FFCB85"/>
<stop offset="0.7085" stop-color="#EEBC79"/>
<stop offset="0.8693" stop-color="#C0935B"/>
<stop offset="1" stop-color="#976F40"/>
</linearGradient>
<linearGradient id="paint56_linear_1_20" x1="156.174" y1="-288.01" x2="172.673" y2="253.11" gradientUnits="userSpaceOnUse">
<stop stop-color="#BE965D"/>
<stop offset="0.2784" stop-color="#976F40"/>
<stop offset="0.4259" stop-color="#C99B61"/>
<stop offset="0.5584" stop-color="#F0BE7B"/>
<stop offset="0.6275" stop-color="#FFCB85"/>
<stop offset="0.7085" stop-color="#EEBC79"/>
<stop offset="0.8693" stop-color="#C0935B"/>
<stop offset="1" stop-color="#976F40"/>
</linearGradient>
<linearGradient id="paint57_linear_1_20" x1="110.92" y1="-286.631" x2="127.418" y2="254.489" gradientUnits="userSpaceOnUse">
<stop stop-color="#BE965D"/>
<stop offset="0.2784" stop-color="#976F40"/>
<stop offset="0.4259" stop-color="#C99B61"/>
<stop offset="0.5584" stop-color="#F0BE7B"/>
<stop offset="0.6275" stop-color="#FFCB85"/>
<stop offset="0.7085" stop-color="#EEBC79"/>
<stop offset="0.8693" stop-color="#C0935B"/>
<stop offset="1" stop-color="#976F40"/>
</linearGradient>
<linearGradient id="paint58_linear_1_20" x1="133.463" y1="-287.318" x2="149.962" y2="253.801" gradientUnits="userSpaceOnUse">
<stop stop-color="#BE965D"/>
<stop offset="0.2784" stop-color="#976F40"/>
<stop offset="0.4259" stop-color="#C99B61"/>
<stop offset="0.5584" stop-color="#F0BE7B"/>
<stop offset="0.6275" stop-color="#FFCB85"/>
<stop offset="0.7085" stop-color="#EEBC79"/>
<stop offset="0.8693" stop-color="#C0935B"/>
<stop offset="1" stop-color="#976F40"/>
</linearGradient>
<linearGradient id="paint59_linear_1_20" x1="156.004" y1="-288.004" x2="172.503" y2="253.115" gradientUnits="userSpaceOnUse">
<stop stop-color="#BE965D"/>
<stop offset="0.2784" stop-color="#976F40"/>
<stop offset="0.4259" stop-color="#C99B61"/>
<stop offset="0.5584" stop-color="#F0BE7B"/>
<stop offset="0.6275" stop-color="#FFCB85"/>
<stop offset="0.7085" stop-color="#EEBC79"/>
<stop offset="0.8693" stop-color="#C0935B"/>
<stop offset="1" stop-color="#976F40"/>
</linearGradient>
<linearGradient id="paint60_linear_1_20" x1="88.2046" y1="-285.939" x2="104.703" y2="255.181" gradientUnits="userSpaceOnUse">
<stop stop-color="#BE965D"/>
<stop offset="0.2784" stop-color="#976F40"/>
<stop offset="0.4259" stop-color="#C99B61"/>
<stop offset="0.5584" stop-color="#F0BE7B"/>
<stop offset="0.6275" stop-color="#FFCB85"/>
<stop offset="0.7085" stop-color="#EEBC79"/>
<stop offset="0.8693" stop-color="#C0935B"/>
<stop offset="1" stop-color="#976F40"/>
</linearGradient>
<linearGradient id="paint61_linear_1_20" x1="110.748" y1="-286.624" x2="127.247" y2="254.496" gradientUnits="userSpaceOnUse">
<stop stop-color="#BE965D"/>
<stop offset="0.2784" stop-color="#976F40"/>
<stop offset="0.4259" stop-color="#C99B61"/>
<stop offset="0.5584" stop-color="#F0BE7B"/>
<stop offset="0.6275" stop-color="#FFCB85"/>
<stop offset="0.7085" stop-color="#EEBC79"/>
<stop offset="0.8693" stop-color="#C0935B"/>
<stop offset="1" stop-color="#976F40"/>
</linearGradient>
<linearGradient id="paint62_linear_1_20" x1="133.289" y1="-287.312" x2="149.788" y2="253.808" gradientUnits="userSpaceOnUse">
<stop stop-color="#BE965D"/>
<stop offset="0.2784" stop-color="#976F40"/>
<stop offset="0.4259" stop-color="#C99B61"/>
<stop offset="0.5584" stop-color="#F0BE7B"/>
<stop offset="0.6275" stop-color="#FFCB85"/>
<stop offset="0.7085" stop-color="#EEBC79"/>
<stop offset="0.8693" stop-color="#C0935B"/>
<stop offset="1" stop-color="#976F40"/>
</linearGradient>
<linearGradient id="paint63_linear_1_20" x1="65.4948" y1="-285.244" x2="81.9935" y2="255.877" gradientUnits="userSpaceOnUse">
<stop stop-color="#BE965D"/>
<stop offset="0.2784" stop-color="#976F40"/>
<stop offset="0.4259" stop-color="#C99B61"/>
<stop offset="0.5584" stop-color="#F0BE7B"/>
<stop offset="0.6275" stop-color="#FFCB85"/>
<stop offset="0.7085" stop-color="#EEBC79"/>
<stop offset="0.8693" stop-color="#C0935B"/>
<stop offset="1" stop-color="#976F40"/>
</linearGradient>
<linearGradient id="paint64_linear_1_20" x1="88.0338" y1="-285.934" x2="104.533" y2="255.187" gradientUnits="userSpaceOnUse">
<stop stop-color="#BE965D"/>
<stop offset="0.2784" stop-color="#976F40"/>
<stop offset="0.4259" stop-color="#C99B61"/>
<stop offset="0.5584" stop-color="#F0BE7B"/>
<stop offset="0.6275" stop-color="#FFCB85"/>
<stop offset="0.7085" stop-color="#EEBC79"/>
<stop offset="0.8693" stop-color="#C0935B"/>
<stop offset="1" stop-color="#976F40"/>
</linearGradient>
<linearGradient id="paint65_linear_1_20" x1="110.577" y1="-286.619" x2="127.076" y2="254.502" gradientUnits="userSpaceOnUse">
<stop stop-color="#BE965D"/>
<stop offset="0.2784" stop-color="#976F40"/>
<stop offset="0.4259" stop-color="#C99B61"/>
<stop offset="0.5584" stop-color="#F0BE7B"/>
<stop offset="0.6275" stop-color="#FFCB85"/>
<stop offset="0.7085" stop-color="#EEBC79"/>
<stop offset="0.8693" stop-color="#C0935B"/>
<stop offset="1" stop-color="#976F40"/>
</linearGradient>
<linearGradient id="paint66_linear_1_20" x1="133.118" y1="-287.307" x2="149.617" y2="253.814" gradientUnits="userSpaceOnUse">
<stop stop-color="#BE965D"/>
<stop offset="0.2784" stop-color="#976F40"/>
<stop offset="0.4259" stop-color="#C99B61"/>
<stop offset="0.5584" stop-color="#F0BE7B"/>
<stop offset="0.6275" stop-color="#FFCB85"/>
<stop offset="0.7085" stop-color="#EEBC79"/>
<stop offset="0.8693" stop-color="#C0935B"/>
<stop offset="1" stop-color="#976F40"/>
</linearGradient>
<linearGradient id="paint67_linear_1_20" x1="42.779" y1="-284.553" x2="59.2778" y2="256.568" gradientUnits="userSpaceOnUse">
<stop stop-color="#BE965D"/>
<stop offset="0.2784" stop-color="#976F40"/>
<stop offset="0.4259" stop-color="#C99B61"/>
<stop offset="0.5584" stop-color="#F0BE7B"/>
<stop offset="0.6275" stop-color="#FFCB85"/>
<stop offset="0.7085" stop-color="#EEBC79"/>
<stop offset="0.8693" stop-color="#C0935B"/>
<stop offset="1" stop-color="#976F40"/>
</linearGradient>
<linearGradient id="paint68_linear_1_20" x1="65.3215" y1="-285.241" x2="81.8203" y2="255.88" gradientUnits="userSpaceOnUse">
<stop stop-color="#BE965D"/>
<stop offset="0.2784" stop-color="#976F40"/>
<stop offset="0.4259" stop-color="#C99B61"/>
<stop offset="0.5584" stop-color="#F0BE7B"/>
<stop offset="0.6275" stop-color="#FFCB85"/>
<stop offset="0.7085" stop-color="#EEBC79"/>
<stop offset="0.8693" stop-color="#C0935B"/>
<stop offset="1" stop-color="#976F40"/>
</linearGradient>
<linearGradient id="paint69_linear_1_20" x1="87.8632" y1="-285.928" x2="104.362" y2="255.192" gradientUnits="userSpaceOnUse">
<stop stop-color="#BE965D"/>
<stop offset="0.2784" stop-color="#976F40"/>
<stop offset="0.4259" stop-color="#C99B61"/>
<stop offset="0.5584" stop-color="#F0BE7B"/>
<stop offset="0.6275" stop-color="#FFCB85"/>
<stop offset="0.7085" stop-color="#EEBC79"/>
<stop offset="0.8693" stop-color="#C0935B"/>
<stop offset="1" stop-color="#976F40"/>
</linearGradient>
<linearGradient id="paint70_linear_1_20" x1="110.406" y1="-286.614" x2="126.905" y2="254.507" gradientUnits="userSpaceOnUse">
<stop stop-color="#BE965D"/>
<stop offset="0.2784" stop-color="#976F40"/>
<stop offset="0.4259" stop-color="#C99B61"/>
<stop offset="0.5584" stop-color="#F0BE7B"/>
<stop offset="0.6275" stop-color="#FFCB85"/>
<stop offset="0.7085" stop-color="#EEBC79"/>
<stop offset="0.8693" stop-color="#C0935B"/>
<stop offset="1" stop-color="#976F40"/>
</linearGradient>
<linearGradient id="paint71_linear_1_20" x1="20.0638" y1="-283.861" x2="36.5627" y2="257.26" gradientUnits="userSpaceOnUse">
<stop stop-color="#BE965D"/>
<stop offset="0.2784" stop-color="#976F40"/>
<stop offset="0.4259" stop-color="#C99B61"/>
<stop offset="0.5584" stop-color="#F0BE7B"/>
<stop offset="0.6275" stop-color="#FFCB85"/>
<stop offset="0.7085" stop-color="#EEBC79"/>
<stop offset="0.8693" stop-color="#C0935B"/>
<stop offset="1" stop-color="#976F40"/>
</linearGradient>
<linearGradient id="paint72_linear_1_20" x1="42.6081" y1="-284.547" x2="59.1069" y2="256.574" gradientUnits="userSpaceOnUse">
<stop stop-color="#BE965D"/>
<stop offset="0.2784" stop-color="#976F40"/>
<stop offset="0.4259" stop-color="#C99B61"/>
<stop offset="0.5584" stop-color="#F0BE7B"/>
<stop offset="0.6275" stop-color="#FFCB85"/>
<stop offset="0.7085" stop-color="#EEBC79"/>
<stop offset="0.8693" stop-color="#C0935B"/>
<stop offset="1" stop-color="#976F40"/>
</linearGradient>
<linearGradient id="paint73_linear_1_20" x1="65.1473" y1="-285.235" x2="81.646" y2="255.886" gradientUnits="userSpaceOnUse">
<stop stop-color="#BE965D"/>
<stop offset="0.2784" stop-color="#976F40"/>
<stop offset="0.4259" stop-color="#C99B61"/>
<stop offset="0.5584" stop-color="#F0BE7B"/>
<stop offset="0.6275" stop-color="#FFCB85"/>
<stop offset="0.7085" stop-color="#EEBC79"/>
<stop offset="0.8693" stop-color="#C0935B"/>
<stop offset="1" stop-color="#976F40"/>
</linearGradient>
<linearGradient id="paint74_linear_1_20" x1="87.6904" y1="-285.922" x2="104.189" y2="255.198" gradientUnits="userSpaceOnUse">
<stop stop-color="#BE965D"/>
<stop offset="0.2784" stop-color="#976F40"/>
<stop offset="0.4259" stop-color="#C99B61"/>
<stop offset="0.5584" stop-color="#F0BE7B"/>
<stop offset="0.6275" stop-color="#FFCB85"/>
<stop offset="0.7085" stop-color="#EEBC79"/>
<stop offset="0.8693" stop-color="#C0935B"/>
<stop offset="1" stop-color="#976F40"/>
</linearGradient>
<linearGradient id="paint75_linear_1_20" x1="110.233" y1="-286.61" x2="126.732" y2="254.51" gradientUnits="userSpaceOnUse">
<stop stop-color="#BE965D"/>
<stop offset="0.2784" stop-color="#976F40"/>
<stop offset="0.4259" stop-color="#C99B61"/>
<stop offset="0.5584" stop-color="#F0BE7B"/>
<stop offset="0.6275" stop-color="#FFCB85"/>
<stop offset="0.7085" stop-color="#EEBC79"/>
<stop offset="0.8693" stop-color="#C0935B"/>
<stop offset="1" stop-color="#976F40"/>
</linearGradient>
</defs>
</svg>
